# Blender 4.1.1
# www.blender.org
mtllib CircularBush_Green.mtl
o CircularBush_Green
v 0.031531 0.191409 -0.641285
v 0.031531 -0.593466 -0.641285
v 0.204109 0.444080 -0.342371
v 0.330445 0.191409 -0.561191
v 0.376687 -0.153748 -0.641285
v 0.330445 -0.593466 -0.561191
v 0.204109 -0.669268 -0.342371
v 0.330445 0.444080 -0.216035
v 0.549265 0.191409 -0.342371
v 0.629359 -0.153748 -0.388613
v 0.549265 -0.593466 -0.342371
v 0.330445 -0.669268 -0.216035
v 0.376687 0.444080 -0.043457
v 0.629359 0.191409 -0.043457
v 0.721843 -0.153748 -0.043457
v 0.629359 -0.593466 -0.043457
v 0.376687 -0.669268 -0.043457
v 0.330445 0.444080 0.129121
v 0.549265 0.191409 0.255457
v 0.629359 -0.153748 0.301700
v 0.549265 -0.593466 0.255457
v 0.330445 -0.669268 0.129121
v 0.204109 0.444080 0.255457
v 0.330445 0.191409 0.474278
v 0.376687 -0.153748 0.554371
v 0.330445 -0.593466 0.474278
v 0.204109 -0.669268 0.255457
v 0.031531 0.444080 0.301700
v 0.031531 0.191409 0.554371
v 0.031531 -0.153748 0.646856
v 0.031531 -0.593466 0.554371
v 0.031531 -0.669268 0.301700
v 0.031531 0.536565 -0.043457
v -0.141047 0.444080 0.255457
v -0.267383 0.191409 0.474278
v -0.313625 -0.153748 0.554371
v -0.267383 -0.593466 0.474278
v -0.141047 -0.669268 0.255457
v 0.031531 -0.697013 -0.043457
v -0.267383 0.444080 0.129121
v -0.486204 0.191409 0.255457
v -0.566297 -0.153748 0.301700
v -0.486204 -0.593466 0.255457
v -0.267383 -0.669268 0.129121
v -0.313625 0.444080 -0.043457
v -0.566297 0.191409 -0.043457
v -0.658782 -0.153748 -0.043457
v -0.566297 -0.593466 -0.043457
v -0.313625 -0.669268 -0.043457
v -0.267383 0.444080 -0.216035
v -0.486203 0.191409 -0.342371
v -0.566297 -0.153748 -0.388613
v -0.486203 -0.593466 -0.342371
v -0.267383 -0.669268 -0.216035
v -0.141047 0.444080 -0.342371
v -0.267383 0.191409 -0.561191
v -0.313625 -0.153748 -0.641285
v -0.267383 -0.593466 -0.561191
v -0.141047 -0.669268 -0.342371
v 0.031531 0.444080 -0.388613
v 0.031531 -0.153748 -0.733769
v 0.031531 -0.669268 -0.388613
v -0.525645 0.155075 0.178898
v -0.586825 -0.107410 0.222036
v -0.561631 0.155075 0.052374
v -0.636859 -0.107410 0.046124
v -0.634469 -0.125011 0.134426
v -0.543638 0.155075 0.115636
v -0.551235 0.028362 0.240386
v -0.603485 0.028362 0.008905
v -0.589839 0.018655 0.124837
v -0.177479 0.155075 -0.595448
v -0.221349 -0.107410 -0.656106
v -0.051396 0.155075 -0.632952
v -0.046051 -0.107410 -0.708250
v -0.134318 -0.125011 -0.704800
v -0.114437 0.155075 -0.614200
v -0.239270 0.028362 -0.620298
v -0.008433 0.028362 -0.675326
v -0.124193 0.018655 -0.660287
v 0.496479 0.155075 0.327443
v 0.565079 -0.107410 0.357411
v 0.406921 0.155075 0.423790
v 0.440562 -0.107410 0.491366
v 0.514843 -0.125011 0.443561
v 0.451700 0.155075 0.375617
v 0.562328 0.028362 0.317463
v 0.391436 0.028362 0.482113
v 0.483512 0.018655 0.410361
v -0.306338 0.443766 -0.079275
v -0.508464 0.260854 -0.093092
v -0.278076 0.440039 -0.207691
v -0.469169 0.255672 -0.271635
v -0.514813 0.254961 -0.193989
v -0.292207 0.441902 -0.143483
v -0.418567 0.360535 -0.048148
v -0.356927 0.346816 -0.276896
v -0.402084 0.351854 -0.168933
v 0.254493 0.388412 -0.381239
v 0.388086 0.201188 -0.528217
v 0.341456 0.390391 -0.282563
v 0.508994 0.203940 -0.391024
v 0.473330 0.199069 -0.473590
v 0.297975 0.389401 -0.331901
v 0.297064 0.301256 -0.486517
v 0.445417 0.297993 -0.301329
v 0.384912 0.297697 -0.401627
v 0.186794 0.426300 0.302210
v 0.248996 0.243388 0.495022
v 0.057062 0.422573 0.323637
v 0.068624 0.238206 0.524813
v 0.157666 0.237495 0.538373
v 0.121928 0.424436 0.312923
v 0.257358 0.343069 0.394865
v 0.022072 0.329350 0.422545
v 0.139084 0.334388 0.424397
v -0.039008 0.144439 0.548075
v -0.030622 -0.119360 0.617660
v -0.167791 0.145626 0.521299
v -0.209674 -0.117709 0.580432
v -0.130433 -0.136431 0.618942
v -0.103399 0.145033 0.534687
v 0.002896 0.016611 0.597024
v -0.226417 0.018960 0.535999
v -0.117432 0.007916 0.577484
vn 0.0215 -0.9966 -0.0801
vn 0.2536 -0.1991 -0.9466
vn 0.1862 0.6947 -0.6947
vn 0.0768 -0.9550 -0.2865
vn 0.2506 0.2506 -0.9351
vn 0.0692 0.9636 -0.2582
vn 0.2097 -0.9550 -0.2097
vn 0.6846 0.2506 -0.6846
vn 0.1890 0.9636 -0.1890
vn 0.0586 -0.9966 -0.0586
vn 0.6930 -0.1991 -0.6930
vn 0.5086 0.6947 -0.5086
vn 0.2865 -0.9550 -0.0768
vn 0.9351 0.2506 -0.2506
vn 0.2582 0.9636 -0.0692
vn 0.0801 -0.9966 -0.0215
vn 0.9466 -0.1991 -0.2536
vn 0.6947 0.6947 -0.1862
vn 0.2865 -0.9550 0.0768
vn 0.9351 0.2506 0.2506
vn 0.2582 0.9636 0.0692
vn 0.0801 -0.9966 0.0215
vn 0.9466 -0.1991 0.2536
vn 0.6947 0.6947 0.1862
vn 0.2097 -0.9550 0.2097
vn 0.6846 0.2506 0.6846
vn 0.1890 0.9636 0.1890
vn 0.0586 -0.9966 0.0586
vn 0.6930 -0.1991 0.6930
vn 0.5086 0.6947 0.5086
vn 0.2506 0.2506 0.9351
vn 0.0692 0.9636 0.2582
vn 0.0215 -0.9966 0.0801
vn 0.2536 -0.1991 0.9466
vn 0.1862 0.6947 0.6947
vn 0.0768 -0.9550 0.2865
vn -0.0692 0.9636 0.2582
vn -0.0215 -0.9966 0.0801
vn -0.2536 -0.1991 0.9466
vn -0.1862 0.6947 0.6947
vn -0.0768 -0.9550 0.2865
vn -0.2506 0.2506 0.9351
vn -0.0586 -0.9966 0.0586
vn -0.6930 -0.1991 0.6930
vn -0.5086 0.6947 0.5086
vn -0.2097 -0.9550 0.2097
vn -0.6846 0.2506 0.6846
vn -0.1890 0.9636 0.1890
vn -0.0801 -0.9966 0.0215
vn -0.9466 -0.1991 0.2536
vn -0.6947 0.6947 0.1862
vn -0.2865 -0.9550 0.0768
vn -0.9351 0.2506 0.2506
vn -0.2582 0.9636 0.0692
vn -0.0801 -0.9966 -0.0215
vn -0.9466 -0.1991 -0.2536
vn -0.6947 0.6947 -0.1862
vn -0.2865 -0.9550 -0.0768
vn -0.9351 0.2506 -0.2506
vn -0.2582 0.9636 -0.0692
vn -0.6930 -0.1991 -0.6930
vn -0.5086 0.6947 -0.5086
vn -0.2097 -0.9550 -0.2097
vn -0.6846 0.2506 -0.6846
vn -0.1890 0.9636 -0.1890
vn -0.0586 -0.9966 -0.0586
vn -0.1862 0.6947 -0.6947
vn -0.0768 -0.9550 -0.2865
vn -0.2506 0.2506 -0.9351
vn -0.0692 0.9636 -0.2582
vn -0.0215 -0.9966 -0.0801
vn -0.2536 -0.1991 -0.9466
vn -0.9394 0.2907 0.1816
vn -0.9080 0.3203 0.2700
vn -0.9032 0.2483 0.3501
vn -0.9520 0.2846 0.1128
vn -0.1929 0.2907 -0.9372
vn -0.2809 0.3203 -0.9047
vn -0.3609 0.2483 -0.8989
vn -0.1242 0.2846 -0.9506
vn 0.6422 0.2907 0.7093
vn 0.7015 0.3203 0.6366
vn 0.7675 0.2483 0.5910
vn 0.5898 0.2846 0.7557
vn -0.6113 0.7539 -0.2407
vn -0.6109 0.7782 -0.1455
vn -0.6799 0.7290 -0.0790
vn -0.5941 0.7432 -0.3079
vn 0.5428 0.7472 -0.3836
vn 0.4652 0.7678 -0.4405
vn 0.4532 0.7143 -0.5332
vn 0.5869 0.7395 -0.3296
vn 0.0034 0.7539 0.6570
vn 0.0917 0.7782 0.6212
vn 0.1790 0.7290 0.6607
vn -0.0654 0.7432 0.6659
vn -0.2731 0.2761 0.9215
vn -0.1801 0.3049 0.9352
vn -0.1073 0.2320 0.9668
vn -0.3399 0.2707 0.9006
vt 0.322403 0.758416
vt 0.322403 0.763647
vt 0.323105 0.763647
vt 0.322403 0.777941
vt 0.322403 0.860852
vt 0.323808 0.860852
vt 0.323619 0.777941
vt 0.322403 0.925934
vt 0.322403 0.973577
vt 0.323105 0.973577
vt 0.323619 0.925934
vt 0.322403 0.991016
vt 0.324510 0.777941
vt 0.323619 0.763647
vt 0.324510 0.925934
vt 0.324836 0.860852
vt 0.323619 0.973577
vt 0.324836 0.777941
vt 0.323808 0.763647
vt 0.324836 0.925934
vt 0.325212 0.860852
vt 0.323808 0.973577
vt 0.323105 0.973577
vt 0.322403 0.973577
vt 0.321700 0.973577
vt 0.321700 0.763647
vt 0.320998 0.860852
vt 0.321186 0.777941
vt 0.321186 0.925934
vt 0.321186 0.763647
vt 0.319970 0.860852
vt 0.320296 0.777941
vt 0.321186 0.973577
vt 0.320296 0.925934
vt 0.320998 0.763647
vt 0.319593 0.860852
vt 0.319970 0.777941
vt 0.320998 0.973577
vt 0.319970 0.925934
vt 0.321700 0.973577
vt 0.319957 0.858644
vt 0.320133 0.891192
vt 0.319970 0.891192
vt 0.319781 0.858645
vt 0.320133 0.858645
vt 0.320296 0.891192
vt 0.319970 0.826111
vt 0.319782 0.826111
vt 0.319593 0.826111
vt 0.326933 0.904023
vt 0.327109 0.936571
vt 0.326946 0.936571
vt 0.326757 0.904024
vt 0.327109 0.904023
vt 0.327272 0.936571
vt 0.326946 0.871490
vt 0.326757 0.871490
vt 0.326569 0.871490
vt 0.319957 0.903058
vt 0.320133 0.935606
vt 0.319970 0.935606
vt 0.319781 0.903058
vt 0.320133 0.903058
vt 0.320296 0.935606
vt 0.319970 0.870524
vt 0.319782 0.870524
vt 0.319593 0.870524
s 0
usemtl Texture
f 39/1/1 62/2/1 7/3/1
f 2/4/2 61/5/2 5/6/2 6/7/2
f 1/8/3 60/9/3 3/10/3 4/11/3
f 62/2/4 2/4/4 6/7/4 7/3/4
f 61/5/5 1/8/5 4/11/5 5/6/5
f 60/9/6 33/12/6 3/10/6
f 7/3/7 6/7/7 11/13/7 12/14/7
f 5/6/8 4/11/8 9/15/8 10/16/8
f 3/10/9 33/12/9 8/17/9
f 39/1/10 7/3/10 12/14/10
f 6/7/11 5/6/11 10/16/11 11/13/11
f 4/11/12 3/10/12 8/17/12 9/15/12
f 12/14/13 11/13/13 16/18/13 17/19/13
f 10/16/14 9/15/14 14/20/14 15/21/14
f 8/17/15 33/12/15 13/22/15
f 39/1/16 12/14/16 17/19/16
f 11/13/17 10/16/17 15/21/17 16/18/17
f 9/15/18 8/17/18 13/22/18 14/20/18
f 17/19/19 16/18/19 21/13/19 22/14/19
f 15/21/20 14/20/20 19/15/20 20/16/20
f 13/22/21 33/12/21 18/17/21
f 39/1/22 17/19/22 22/14/22
f 16/18/23 15/21/23 20/16/23 21/13/23
f 14/20/24 13/22/24 18/17/24 19/15/24
f 22/14/25 21/13/25 26/7/25 27/3/25
f 20/16/26 19/15/26 24/11/26 25/6/26
f 18/17/27 33/12/27 23/23/27
f 39/1/28 22/14/28 27/3/28
f 21/13/29 20/16/29 25/6/29 26/7/29
f 19/15/30 18/17/30 23/23/30 24/11/30
f 25/6/31 24/11/31 29/8/31 30/5/31
f 23/23/32 33/12/32 28/24/32
f 39/1/33 27/3/33 32/2/33
f 26/7/34 25/6/34 30/5/34 31/4/34
f 24/11/35 23/23/35 28/24/35 29/8/35
f 27/3/36 26/7/36 31/4/36 32/2/36
f 28/24/37 33/12/37 34/25/37
f 39/1/38 32/2/38 38/26/38
f 31/4/39 30/5/39 36/27/39 37/28/39
f 29/8/40 28/24/40 34/25/40 35/29/40
f 32/2/41 31/4/41 37/28/41 38/26/41
f 30/5/42 29/8/42 35/29/42 36/27/42
f 39/1/43 38/26/43 44/30/43
f 37/28/44 36/27/44 42/31/44 43/32/44
f 35/29/45 34/25/45 40/33/45 41/34/45
f 38/26/46 37/28/46 43/32/46 44/30/46
f 36/27/47 35/29/47 41/34/47 42/31/47
f 34/25/48 33/12/48 40/33/48
f 39/1/49 44/30/49 49/35/49
f 43/32/50 42/31/50 47/36/50 48/37/50
f 41/34/51 40/33/51 45/38/51 46/39/51
f 44/30/52 43/32/52 48/37/52 49/35/52
f 42/31/53 41/34/53 46/39/53 47/36/53
f 40/33/54 33/12/54 45/38/54
f 39/1/55 49/35/55 54/30/55
f 48/37/56 47/36/56 52/31/56 53/32/56
f 46/39/57 45/38/57 50/33/57 51/34/57
f 49/35/58 48/37/58 53/32/58 54/30/58
f 47/36/59 46/39/59 51/34/59 52/31/59
f 45/38/60 33/12/60 50/33/60
f 53/32/61 52/31/61 57/27/61 58/28/61
f 51/34/62 50/33/62 55/40/62 56/29/62
f 54/30/63 53/32/63 58/28/63 59/26/63
f 52/31/64 51/34/64 56/29/64 57/27/64
f 50/33/65 33/12/65 55/40/65
f 39/1/66 54/30/66 59/26/66
f 56/29/67 55/40/67 60/9/67 1/8/67
f 59/26/68 58/28/68 2/4/68 62/2/68
f 57/27/69 56/29/69 1/8/69 61/5/69
f 55/40/70 33/12/70 60/9/70
f 39/1/71 59/26/71 62/2/71
f 58/28/72 57/27/72 61/5/72 2/4/72
f 71/41/73 68/42/73 65/43/73 70/44/73
f 69/45/74 63/46/74 68/42/74 71/41/74
f 64/47/75 69/45/75 71/41/75 67/48/75
f 67/48/76 71/41/76 70/44/76 66/49/76
f 80/41/77 77/42/77 74/43/77 79/44/77
f 78/45/78 72/46/78 77/42/78 80/41/78
f 73/47/79 78/45/79 80/41/79 76/48/79
f 76/48/80 80/41/80 79/44/80 75/49/80
f 89/41/81 86/42/81 83/43/81 88/44/81
f 87/45/82 81/46/82 86/42/82 89/41/82
f 82/47/83 87/45/83 89/41/83 85/48/83
f 85/48/84 89/41/84 88/44/84 84/49/84
f 98/50/85 95/51/85 92/52/85 97/53/85
f 96/54/86 90/55/86 95/51/86 98/50/86
f 91/56/87 96/54/87 98/50/87 94/57/87
f 94/57/88 98/50/88 97/53/88 93/58/88
f 107/59/89 104/60/89 101/61/89 106/62/89
f 105/63/90 99/64/90 104/60/90 107/59/90
f 100/65/91 105/63/91 107/59/91 103/66/91
f 103/66/92 107/59/92 106/62/92 102/67/92
f 116/50/93 113/51/93 110/52/93 115/53/93
f 114/54/94 108/55/94 113/51/94 116/50/94
f 109/56/95 114/54/95 116/50/95 112/57/95
f 112/57/96 116/50/96 115/53/96 111/58/96
f 125/41/97 122/42/97 119/43/97 124/44/97
f 123/45/98 117/46/98 122/42/98 125/41/98
f 118/47/99 123/45/99 125/41/99 121/48/99
f 121/48/100 125/41/100 124/44/100 120/49/100
