# Blender 4.1.1
# www.blender.org
mtllib CubyBush_Green.mtl
o CubyBush_Green
v -0.443161 -0.608389 0.446254
v -0.443161 -0.439099 0.615544
v -0.612452 -0.439099 0.446254
v -0.443161 -0.558805 0.565960
v -0.540901 -0.536838 0.543994
v -0.562868 -0.439099 0.565960
v -0.562868 -0.558805 0.446254
v -0.443161 0.444079 0.615544
v -0.612452 0.444079 0.446254
v -0.562868 0.444079 0.565960
v -0.443161 -0.608389 -0.442085
v -0.612452 -0.439099 -0.442085
v -0.443161 -0.439099 -0.611376
v -0.562868 -0.558805 -0.442085
v -0.540901 -0.536838 -0.539825
v -0.562868 -0.439099 -0.561792
v -0.443161 -0.558805 -0.561792
v -0.443161 0.444079 -0.611376
v -0.612452 0.444079 -0.442085
v -0.559497 0.444079 -0.562784
v 0.445178 -0.608389 0.446254
v 0.614468 -0.439099 0.446254
v 0.445178 -0.439099 0.615544
v 0.564884 -0.558805 0.446254
v 0.542918 -0.536838 0.543994
v 0.564884 -0.439099 0.565960
v 0.445178 -0.558805 0.565960
v 0.445178 0.444079 0.615544
v 0.614468 0.444079 0.446254
v 0.564884 0.444079 0.565960
v 0.445178 -0.608389 -0.442085
v 0.445178 -0.439099 -0.611376
v 0.614468 -0.439099 -0.442085
v 0.445178 -0.558805 -0.561792
v 0.542918 -0.536838 -0.539825
v 0.564884 -0.439099 -0.561792
v 0.564884 -0.558805 -0.442085
v 0.614468 0.444079 -0.442085
v 0.445178 0.444079 -0.611376
v 0.564884 0.444079 -0.561792
v 0.022216 0.413780 0.615464
v 0.040899 0.141718 0.624444
v -0.109293 0.416716 0.615368
v -0.141944 0.145800 0.624309
v -0.056871 0.121690 0.625105
v -0.043538 0.415248 0.615416
v 0.071380 0.279837 0.619885
v -0.165440 0.288174 0.619610
v -0.050531 0.271835 0.620149
v 0.440709 0.130258 0.615464
v 0.467705 -0.141105 0.624444
v 0.309171 0.129170 0.615367
v 0.284822 -0.142618 0.624309
v 0.370593 -0.164115 0.625105
v 0.374940 0.129714 0.615416
v 0.493946 -0.002118 0.619885
v 0.256982 -0.001029 0.619610
v 0.372337 -0.013846 0.620149
v -0.257322 -0.087948 0.615464
v -0.230326 -0.359311 0.624444
v -0.388860 -0.089036 0.615367
v -0.413209 -0.360824 0.624309
v -0.327438 -0.382321 0.625105
v -0.323091 -0.088492 0.615416
v -0.204084 -0.220324 0.619885
v -0.441049 -0.219235 0.619610
v -0.325694 -0.232052 0.620149
v -0.600858 -0.087948 0.124077
v -0.610193 -0.359311 0.150952
v -0.599026 -0.089036 -0.007448
v -0.607645 -0.360824 -0.031913
v -0.609573 -0.382321 0.053840
v -0.599942 -0.088492 0.058314
v -0.605981 -0.220324 0.177251
v -0.602579 -0.219235 -0.059689
v -0.604640 -0.232052 0.055649
v -0.618731 0.374196 -0.244506
v -0.628066 0.102833 -0.217630
v -0.616899 0.373108 -0.376031
v -0.625519 0.101320 -0.400495
v -0.627446 0.079824 -0.314743
v -0.617815 0.373652 -0.310268
v -0.623854 0.241820 -0.191331
v -0.620453 0.242909 -0.428271
v -0.622514 0.230092 -0.312933
v -0.618731 0.365932 0.340598
v -0.628066 0.094569 0.367473
v -0.616899 0.364844 0.209073
v -0.625519 0.093056 0.184608
v -0.627446 0.071559 0.270361
v -0.617815 0.365388 0.274836
v -0.623854 0.233556 0.393773
v -0.620453 0.234645 0.156833
v -0.622514 0.221828 0.272171
v 0.620054 0.418272 -0.008338
v 0.629389 0.146909 -0.035213
v 0.618222 0.417184 0.123187
v 0.626842 0.145396 0.147652
v 0.628769 0.123899 0.061899
v 0.619138 0.417728 0.057424
v 0.625177 0.285895 -0.061513
v 0.621776 0.286985 0.175427
v 0.623837 0.274168 0.060089
v 0.620054 0.066218 -0.467826
v 0.629389 -0.205145 -0.494701
v 0.618222 0.065130 -0.336301
v 0.626842 -0.206658 -0.311836
v 0.628769 -0.228155 -0.397589
v 0.619138 0.065674 -0.402064
v 0.625177 -0.066159 -0.521001
v 0.621776 -0.065069 -0.284061
v 0.623837 -0.077886 -0.399399
v 0.620054 -0.118900 0.236282
v 0.629389 -0.390263 0.209406
v 0.618222 -0.119988 0.367807
v 0.626842 -0.391776 0.392272
v 0.628769 -0.413272 0.306519
v 0.619138 -0.119444 0.302044
v 0.625177 -0.251276 0.183107
v 0.621776 -0.250187 0.420047
v 0.623837 -0.263004 0.304709
v 0.282183 -0.118900 -0.619612
v 0.255136 -0.390263 -0.616771
v 0.413719 -0.119988 -0.620278
v 0.438016 -0.391776 -0.617697
v 0.352242 -0.413272 -0.617995
v 0.347951 -0.119444 -0.619945
v 0.228921 -0.251276 -0.623724
v 0.465883 -0.250187 -0.624823
v 0.350526 -0.263004 -0.624693
v -0.349200 -0.118900 -0.611254
v -0.376248 -0.390263 -0.620077
v -0.217664 -0.119988 -0.611920
v -0.193367 -0.391776 -0.621003
v -0.279141 -0.413272 -0.621301
v -0.283432 -0.119444 -0.611587
v -0.402462 -0.251276 -0.615366
v -0.165500 -0.250187 -0.616465
v -0.280857 -0.263004 -0.616335
v -0.163046 0.441742 -0.611254
v -0.190093 0.170379 -0.620077
v -0.031510 0.440654 -0.611920
v -0.007213 0.168866 -0.621003
v -0.092987 0.147369 -0.621301
v -0.097278 0.441198 -0.611587
v -0.216308 0.309366 -0.615366
v 0.020654 0.310455 -0.616465
v -0.094703 0.297638 -0.616335
v 0.547883 0.538329 -0.544785
v 0.431787 0.538329 -0.592873
v 0.595971 0.538329 -0.428690
v 0.547883 0.538329 0.548948
v 0.595835 0.538460 0.432906
v 0.431787 0.538329 0.597036
v -0.542685 0.537547 -0.545839
v -0.593939 0.538329 -0.428690
v -0.429755 0.538329 -0.592873
v -0.545851 0.538329 0.548948
v -0.593939 0.538329 0.432853
v -0.429755 0.538329 0.597036
v 0.452816 0.597356 -0.449724
v 0.452816 0.597356 0.453892
v -0.450800 0.597356 -0.449724
v -0.451553 0.597356 0.453518
vn -0.0000 -0.0000 1.0000
vn 1.0000 -0.0000 -0.0000
vn -1.0000 -0.0000 -0.0000
vn -0.0000 -0.0000 -1.0000
vn -0.3251 -0.8881 0.3251
vn -0.3251 -0.3251 0.8881
vn -0.8881 -0.3251 0.3251
vn -0.3251 -0.8881 -0.3251
vn -0.8881 -0.3251 -0.3251
vn -0.3251 -0.3251 -0.8881
vn 0.3251 -0.8881 0.3251
vn 0.8881 -0.3251 0.3251
vn 0.3251 -0.3251 0.8881
vn 0.3251 -0.8881 -0.3251
vn 0.3251 -0.3251 -0.8881
vn 0.8881 -0.3251 -0.3251
vn -0.3827 -0.9239 -0.0000
vn -0.9239 -0.3827 -0.0000
vn -0.3827 -0.0000 0.9239
vn -0.9239 -0.0000 0.3827
vn -0.3840 0.0002 -0.9233
vn -0.9198 0.0015 -0.3923
vn -0.0000 -0.9239 -0.3827
vn -0.0000 -0.3827 -0.9239
vn 0.9239 -0.0000 -0.3827
vn 0.3827 -0.0000 -0.9239
vn 0.3827 -0.9239 -0.0000
vn 0.9239 -0.3827 -0.0000
vn 0.3827 -0.0000 0.9239
vn 0.9239 -0.0000 0.3827
vn -0.0000 -0.9239 0.3827
vn -0.0000 -0.3827 0.9239
vn -0.0000 -1.0000 -0.0000
vn -0.0000 0.0330 0.9995
vn -0.0010 0.0330 0.9995
vn -0.9994 0.0330 -0.0142
vn 0.9994 0.0330 0.0142
vn -0.0048 0.0330 -0.9994
vn -0.0178 -0.0488 -0.9986
vn 0.0090 -0.0481 -0.9988
vn 0.9812 0.1931 0.0001
vn -0.3725 0.2296 0.8992
vn 0.3725 0.2294 -0.8992
vn -0.9812 0.1927 -0.0000
vn 0.8993 0.2298 0.3722
vn -0.0000 0.1927 0.9813
vn -0.8909 0.2309 -0.3911
vn 0.3725 0.2295 0.8992
vn -0.0000 0.1926 -0.9813
vn -0.8992 0.2296 0.3725
vn 0.8992 0.2294 -0.3725
vn -0.3753 0.2300 -0.8979
vn 0.3810 0.9246 -0.0000
vn -0.0000 0.9245 -0.3812
vn -0.0001 0.9247 0.3808
vn -0.3821 0.9241 -0.0002
vn -0.2901 0.9120 -0.2901
vn -0.2848 0.9153 0.2848
vn 0.2840 0.9156 0.2846
vn 0.2843 0.9156 -0.2843
vn -0.0000 1.0000 -0.0000
vt 0.327143 0.789876
vt 0.327143 0.947084
vt 0.318441 0.947084
vt 0.318441 0.789876
vt 0.328801 0.789876
vt 0.328801 0.947084
vt 0.316783 0.789876
vt 0.316783 0.947084
vt 0.318441 0.759917
vt 0.318441 0.768692
vt 0.317484 0.772579
vt 0.317269 0.768692
vt 0.317269 0.789876
vt 0.327143 0.759917
vt 0.328315 0.768692
vt 0.328100 0.772579
vt 0.327143 0.768692
vt 0.328315 0.789876
vt 0.317269 0.947084
vt 0.328315 0.947084
vt 0.324321 0.905904
vt 0.324496 0.961702
vt 0.324334 0.961702
vt 0.324145 0.905905
vt 0.324496 0.905905
vt 0.324659 0.961702
vt 0.324334 0.850132
vt 0.324145 0.850132
vt 0.323957 0.850132
vt 0.324836 0.838132
vt 0.324951 0.890028
vt 0.324844 0.890028
vt 0.324721 0.838133
vt 0.324951 0.838133
vt 0.325057 0.890028
vt 0.324844 0.786260
vt 0.324721 0.786260
vt 0.324597 0.786260
vt 0.320445 0.799070
vt 0.320621 0.847595
vt 0.320458 0.847595
vt 0.320270 0.799071
vt 0.320621 0.799071
vt 0.320784 0.847595
vt 0.320458 0.750567
vt 0.320270 0.750567
vt 0.320082 0.750567
vt 0.319957 0.858644
vt 0.320133 0.891192
vt 0.319970 0.891192
vt 0.319781 0.858645
vt 0.320133 0.858645
vt 0.320296 0.891192
vt 0.319970 0.826111
vt 0.319782 0.826111
vt 0.319593 0.826111
vt 0.319957 0.889894
vt 0.320133 0.922442
vt 0.319970 0.922442
vt 0.319781 0.889895
vt 0.320133 0.889895
vt 0.320296 0.922442
vt 0.319970 0.857361
vt 0.319782 0.857361
vt 0.319593 0.857361
vt 0.324352 0.894285
vt 0.324527 0.944541
vt 0.324364 0.944541
vt 0.324176 0.894285
vt 0.324527 0.894285
vt 0.324690 0.944541
vt 0.324364 0.844051
vt 0.324176 0.844051
vt 0.323988 0.844051
vt 0.320934 0.834712
vt 0.321109 0.896182
vt 0.320946 0.896182
vt 0.320758 0.834713
vt 0.321109 0.834713
vt 0.321272 0.896182
vt 0.320946 0.773269
vt 0.320758 0.773269
vt 0.320570 0.773269
vt 0.320445 0.822506
vt 0.320621 0.879440
vt 0.320458 0.879441
vt 0.320270 0.822507
vt 0.320621 0.822507
vt 0.320784 0.879441
vt 0.320458 0.765597
vt 0.320270 0.765597
vt 0.320082 0.765597
vt 0.318487 0.801513
vt 0.318593 0.844882
vt 0.318495 0.844883
vt 0.318382 0.801513
vt 0.318592 0.801513
vt 0.318690 0.844883
vt 0.318495 0.758163
vt 0.318382 0.758163
vt 0.318269 0.758163
vt 0.321391 0.885399
vt 0.321567 0.932297
vt 0.321404 0.932297
vt 0.321216 0.885399
vt 0.321567 0.885399
vt 0.321730 0.932297
vt 0.321404 0.838521
vt 0.321216 0.838521
vt 0.321027 0.838521
s 0
usemtl Texture
f 23/1/1 28/2/1 8/3/1 2/4/1
f 33/5/2 38/6/2 29/6/2 22/5/2
f 3/7/3 9/8/3 19/8/3 12/7/3
f 13/4/4 18/3/4 39/2/4 32/1/4
f 1/9/5 4/10/5 5/11/5 7/12/5
f 2/4/6 6/13/6 5/11/6 4/10/6
f 3/7/7 7/12/7 5/11/7 6/13/7
f 11/9/8 14/12/8 15/11/8 17/10/8
f 12/7/9 16/13/9 15/11/9 14/12/9
f 13/4/10 17/10/10 15/11/10 16/13/10
f 21/14/11 24/15/11 25/16/11 27/17/11
f 22/5/12 26/18/12 25/16/12 24/15/12
f 23/1/13 27/17/13 25/16/13 26/18/13
f 31/14/14 34/17/14 35/16/14 37/15/14
f 32/1/15 36/18/15 35/16/15 34/17/15
f 33/5/16 37/15/16 35/16/16 36/18/16
f 11/9/17 1/9/17 7/12/17 14/12/17
f 14/12/18 7/12/18 3/7/18 12/7/18
f 2/4/19 8/3/19 10/19/19 6/13/19
f 6/13/20 10/19/20 9/8/20 3/7/20
f 18/3/21 13/4/21 16/13/21 20/19/21
f 20/19/22 16/13/22 12/7/22 19/8/22
f 31/14/23 11/9/23 17/10/23 34/17/23
f 34/17/24 17/10/24 13/4/24 32/1/24
f 38/6/25 33/5/25 36/18/25 40/20/25
f 40/20/26 36/18/26 32/1/26 39/2/26
f 21/14/27 31/14/27 37/15/27 24/15/27
f 24/15/28 37/15/28 33/5/28 22/5/28
f 28/2/29 23/1/29 26/18/29 30/20/29
f 30/20/30 26/18/30 22/5/30 29/6/30
f 1/9/31 21/14/31 27/17/31 4/10/31
f 4/10/32 27/17/32 23/1/32 2/4/32
f 11/9/33 31/14/33 21/14/33 1/9/33
f 49/21/34 46/22/34 43/23/34 48/24/34
f 47/25/34 41/26/34 46/22/34 49/21/34
f 42/27/34 47/25/34 49/21/34 45/28/34
f 45/28/34 49/21/34 48/24/34 44/29/34
f 58/30/35 55/31/35 52/32/35 57/33/35
f 56/34/35 50/35/35 55/31/35 58/30/35
f 51/36/35 56/34/35 58/30/35 54/37/35
f 54/37/35 58/30/35 57/33/35 53/38/35
f 67/39/35 64/40/35 61/41/35 66/42/35
f 65/43/35 59/44/35 64/40/35 67/39/35
f 60/45/35 65/43/35 67/39/35 63/46/35
f 63/46/35 67/39/35 66/42/35 62/47/35
f 76/48/36 73/49/36 70/50/36 75/51/36
f 74/52/36 68/53/36 73/49/36 76/48/36
f 69/54/36 74/52/36 76/48/36 72/55/36
f 72/55/36 76/48/36 75/51/36 71/56/36
f 85/57/36 82/58/36 79/59/36 84/60/36
f 83/61/36 77/62/36 82/58/36 85/57/36
f 78/63/36 83/61/36 85/57/36 81/64/36
f 81/64/36 85/57/36 84/60/36 80/65/36
f 94/57/36 91/58/36 88/59/36 93/60/36
f 92/61/36 86/62/36 91/58/36 94/57/36
f 87/63/36 92/61/36 94/57/36 90/64/36
f 90/64/36 94/57/36 93/60/36 89/65/36
f 103/66/37 100/67/37 97/68/37 102/69/37
f 101/70/37 95/71/37 100/67/37 103/66/37
f 96/72/37 101/70/37 103/66/37 99/73/37
f 99/73/37 103/66/37 102/69/37 98/74/37
f 112/75/37 109/76/37 106/77/37 111/78/37
f 110/79/37 104/80/37 109/76/37 112/75/37
f 105/81/37 110/79/37 112/75/37 108/82/37
f 108/82/37 112/75/37 111/78/37 107/83/37
f 121/84/37 118/85/37 115/86/37 120/87/37
f 119/88/37 113/89/37 118/85/37 121/84/37
f 114/90/37 119/88/37 121/84/37 117/91/37
f 117/91/37 121/84/37 120/87/37 116/92/37
f 130/93/38 127/94/38 124/95/38 129/96/38
f 128/97/38 122/98/38 127/94/38 130/93/38
f 123/99/39 128/97/39 130/93/39 126/100/39
f 126/100/40 130/93/40 129/96/40 125/101/40
f 139/93/38 136/94/38 133/95/38 138/96/38
f 137/97/38 131/98/38 136/94/38 139/93/38
f 132/99/38 137/97/38 139/93/38 135/100/38
f 135/100/38 139/93/38 138/96/38 134/101/38
f 148/102/38 145/103/38 142/104/38 147/105/38
f 146/106/38 140/107/38 145/103/38 148/102/38
f 141/108/38 146/106/38 148/102/38 144/109/38
f 144/109/38 148/102/38 147/105/38 143/110/38
f 29/6/41 38/6/41 151/6/41 153/6/41
f 10/19/42 8/3/42 160/3/42 158/19/42
f 40/20/43 39/2/43 150/2/43 149/20/43
f 19/8/44 9/8/44 159/8/44 156/8/44
f 30/20/45 29/6/45 153/6/45 152/20/45
f 8/3/46 28/2/46 154/2/46 160/3/46
f 20/19/47 19/8/47 156/8/47 155/19/47
f 28/2/48 30/20/48 152/20/48 154/2/48
f 39/2/49 18/3/49 157/3/49 150/2/49
f 9/8/50 10/19/50 158/19/50 159/8/50
f 38/6/51 40/20/51 149/20/51 151/6/51
f 18/3/52 20/19/52 155/19/52 157/3/52
f 153/6/53 151/6/53 161/6/53 162/6/53
f 150/2/54 157/3/54 163/3/54 161/2/54
f 160/3/55 154/2/55 162/2/55 164/3/55
f 156/8/56 159/8/56 164/8/56 163/8/56
f 156/8/57 163/8/57 157/3/57 155/19/57
f 158/19/58 160/3/58 164/3/58 159/8/58
f 153/6/59 162/6/59 154/2/59 152/20/59
f 150/2/60 161/2/60 151/6/60 149/20/60
f 163/3/61 164/3/61 162/6/61 161/2/61
