# Blender 4.1.1
# www.blender.org
mtllib Flower3.mtl
o Flower3
v 0.005359 -0.039020 -0.157265
v -0.088485 -0.039020 -0.126773
v -0.146484 -0.039020 -0.046944
v -0.146484 -0.039020 0.051730
v -0.088485 -0.039020 0.131558
v 0.005359 -0.039020 0.162050
v 0.099203 -0.039020 -0.126773
v -0.072720 0.004736 -0.105074
v 0.005359 0.004736 -0.130443
v -0.120976 0.004736 -0.038656
v -0.120976 0.004736 0.043441
v -0.072720 0.004736 0.109860
v 0.005359 0.004736 0.135229
v 0.083438 0.004736 0.109860
v 0.131694 0.004736 0.043441
v 0.131694 0.004736 -0.038656
v 0.083438 0.004736 -0.105074
v -0.039882 0.021828 -0.059876
v 0.005359 0.021828 -0.074576
v -0.067842 0.021828 -0.021392
v -0.067842 0.021828 0.026177
v -0.039882 0.021828 0.064662
v 0.005359 0.021828 0.079361
v 0.050600 0.021828 0.064662
v 0.078560 0.021828 0.026177
v 0.078560 0.021828 -0.021392
v 0.050600 0.021828 -0.059876
v 0.255103 -0.003012 0.070635
v 0.185657 -0.003012 0.166219
v 0.255103 -0.003012 -0.047513
v 0.262157 -0.021110 0.159429
v 0.301057 -0.012631 -0.007626
v 0.342341 -0.001826 0.098133
v 0.099203 -0.039020 0.131558
v 0.157202 -0.039020 0.051730
v 0.157202 -0.039020 -0.046944
v 0.224560 0.049379 0.060711
v 0.166781 0.049379 0.140237
v 0.224560 0.049379 -0.037589
v 0.324396 -0.049301 0.090512
v 0.287584 0.022954 0.152656
v 0.317439 0.030008 0.015773
v 0.158040 -0.039020 -0.044286
v 0.101443 -0.039020 -0.125115
v 0.008146 -0.039020 -0.157240
v 0.132391 0.004736 -0.036445
v 0.085302 0.004736 -0.103695
v 0.007677 0.004736 -0.130423
v 0.151192 -0.003012 -0.211527
v 0.218959 -0.003012 -0.114746
v 0.039480 -0.003012 -0.249992
v 0.131865 0.049379 -0.185879
v 0.188247 0.049379 -0.105356
v 0.038920 0.049379 -0.217883
v 0.192546 -0.049301 -0.270573
v 0.237445 -0.021110 -0.189289
v 0.092156 -0.012631 -0.280457
v 0.205594 -0.001826 -0.285060
v 0.239319 0.022954 -0.215535
v 0.119613 0.030008 -0.288329
v 0.013715 -0.039020 -0.157046
v -0.081597 -0.039020 -0.131507
v -0.143694 -0.039020 -0.054823
v 0.012311 0.004736 -0.130261
v -0.066989 0.004736 -0.109013
v -0.118654 0.004736 -0.045211
v -0.145782 -0.003012 -0.207810
v -0.031660 -0.003012 -0.238389
v -0.220135 -0.003012 -0.115992
v -0.128291 0.049379 -0.180876
v -0.033341 0.049379 -0.206318
v -0.190154 0.049379 -0.104483
v -0.187124 -0.049301 -0.266865
v -0.095384 -0.021110 -0.281256
v -0.230746 -0.012631 -0.175910
v -0.196274 -0.001826 -0.284081
v -0.119407 0.022954 -0.291993
v -0.228753 0.030008 -0.204404
v -0.141606 -0.039020 -0.049492
v -0.150206 -0.039020 0.048807
v -0.099386 -0.039020 0.133386
v -0.116917 0.004736 -0.039012
v -0.124072 0.004736 0.042773
v -0.081789 0.004736 0.113144
v -0.243860 -0.003012 0.083024
v -0.233563 -0.003012 -0.034674
v -0.183009 -0.003012 0.184297
v -0.212569 0.049379 0.075800
v -0.204001 0.049379 -0.022126
v -0.161940 0.049379 0.160060
v -0.313494 -0.049301 0.101674
v -0.295640 -0.021110 0.010546
v -0.242943 -0.012631 0.173775
v -0.332801 -0.001826 0.104385
v -0.313946 0.022954 0.029447
v -0.269037 0.030008 0.162156
v -0.088485 -0.039020 0.142057
v 0.005359 -0.039020 0.172549
v 0.099203 -0.039020 0.142057
v -0.072720 0.004736 0.120358
v 0.005359 0.004736 0.145728
v 0.083438 0.004736 0.120358
v 0.017633 -0.003012 0.271500
v -0.094733 -0.003012 0.234990
v 0.129998 -0.003012 0.234990
v 0.017632 0.049379 0.239385
v -0.075857 0.049379 0.209009
v 0.111121 0.049379 0.209009
v 0.020140 -0.049301 0.343544
v -0.064636 -0.021110 0.305648
v 0.106263 -0.012631 0.291021
v 0.018439 -0.001826 0.362966
v -0.050337 0.022954 0.327737
v 0.089072 0.030008 0.313832
vn -0.0000 -1.0000 -0.0000
vn 0.2477 0.9520 -0.1800
vn -0.6989 0.5036 -0.5078
vn 0.6989 0.5036 -0.5078
vn 0.2670 0.5036 0.8216
vn -0.8639 0.5036 -0.0000
vn 0.2670 0.5036 -0.8216
vn -0.4333 0.9013 -0.0000
vn -0.6989 0.5036 0.5078
vn -0.2670 0.5036 -0.8216
vn 0.2996 -0.9289 0.2177
vn -0.2670 0.5036 0.8216
vn -0.0000 1.0000 -0.0000
vn 0.0946 0.9520 0.2912
vn -0.3062 0.9520 -0.0000
vn 0.0946 0.9520 -0.2912
vn 0.2477 0.9520 0.1800
vn -0.2477 0.9520 0.1800
vn -0.0946 0.9520 -0.2912
vn 0.3062 0.9520 -0.0000
vn -0.0946 0.9520 0.2912
vn -0.2477 0.9520 -0.1800
vn 0.0449 0.3185 0.9469
vn -0.3875 -0.9088 -0.1544
vn -0.4509 0.2609 0.8536
vn 0.3452 -0.9385 -0.0000
vn -0.3752 0.8859 -0.2726
vn -0.0613 0.1511 -0.9866
vn 0.6237 -0.3022 0.7209
vn 0.9136 -0.2335 -0.3328
vn 0.2632 0.9556 0.1321
vn -0.3853 -0.9158 -0.1137
vn 0.5718 0.3460 -0.7438
vn 0.2951 0.9528 0.0716
vn -0.1411 0.9013 0.4097
vn 0.3034 -0.9289 -0.2124
vn 0.9099 0.3185 0.2659
vn -0.2722 -0.9088 0.3161
vn 0.6603 0.2609 0.7042
vn 0.1124 -0.9385 -0.3264
vn -0.3799 0.8859 0.2660
vn -0.9528 0.1511 -0.2632
vn 0.8846 -0.3022 -0.3551
vn -0.0172 -0.2335 -0.9722
vn 0.2106 0.9556 -0.2059
vn -0.2329 -0.9158 0.3273
vn -0.5171 0.3460 -0.7829
vn 0.1637 0.9528 -0.2557
vn 0.3367 0.9013 0.2727
vn -0.0959 -0.9289 -0.3577
vn 0.5610 0.3185 -0.7641
vn 0.2040 -0.9088 0.3639
vn 0.8876 0.2609 -0.3796
vn -0.2683 -0.9385 -0.2172
vn 0.1200 0.8859 0.4480
vn -0.5732 0.1511 0.8053
vn -0.0311 -0.3022 -0.9527
vn -0.9195 -0.2335 -0.3163
vn -0.1214 0.9556 -0.2683
vn 0.2279 -0.9158 0.3308
vn -0.9125 0.3460 0.2182
vn -0.1843 0.9528 -0.2413
vn 0.3714 0.9013 -0.2231
vn -0.3689 -0.9289 -0.0323
vn -0.5261 0.3185 -0.7885
vn 0.4117 -0.9088 -0.0672
vn -0.0532 0.2609 -0.9639
vn -0.2959 -0.9385 0.1778
vn 0.4620 0.8859 0.0404
vn 0.5607 0.1511 0.8141
vn -0.9059 -0.3022 -0.2966
vn -0.6117 -0.2335 0.7558
vn -0.2937 0.9556 0.0223
vn 0.3888 -0.9158 -0.1010
vn -0.1071 0.3460 0.9321
vn -0.2898 0.9528 0.0906
vn -0.1339 0.9013 -0.4121
vn -0.1144 -0.9289 0.3522
vn -0.8867 0.3185 0.3353
vn 0.0271 -0.9088 -0.4163
vn -0.9512 0.2609 -0.1650
vn 0.1067 -0.9385 0.3283
vn 0.1433 0.8859 -0.4411
vn 0.9194 0.1511 -0.3632
vn -0.4928 -0.3022 0.8160
vn 0.5988 -0.2335 0.7661
vn -0.0443 0.9556 0.2912
vn -0.0109 -0.9158 -0.4016
vn 0.8841 0.3460 0.3140
vn 0.0231 0.9528 0.3027
vt 0.750799 0.873194
vt 0.753171 0.880029
vt 0.755543 0.873194
vt 0.757009 0.855302
vt 0.757009 0.833185
vt 0.755543 0.815292
vt 0.753171 0.808457
vt 0.750799 0.815292
vt 0.749333 0.833185
vt 0.749333 0.855302
vt 0.185494 0.590624
vt 0.183141 0.627733
vt 0.181540 0.602480
vt 0.182903 0.580978
vt 0.174758 0.639857
vt 0.171930 0.595255
vt 0.173174 0.590624
vt 0.175527 0.627733
vt 0.186738 0.595255
vt 0.183910 0.639857
vt 0.179334 0.478485
vt 0.183910 0.495522
vt 0.183141 0.507645
vt 0.179334 0.493471
vt 0.171930 0.540124
vt 0.173174 0.544755
vt 0.179334 0.656893
vt 0.179334 0.641908
vt 0.750795 0.780156
vt 0.752971 0.785933
vt 0.753124 0.839815
vt 0.750518 0.832897
vt 0.174758 0.495522
vt 0.175527 0.507645
vt 0.755414 0.773708
vt 0.753107 0.800982
vt 0.753286 0.857834
vt 0.756049 0.825176
vt 0.177128 0.602480
vt 0.175765 0.580978
vt 0.175765 0.554400
vt 0.177128 0.532898
vt 0.179334 0.524685
vt 0.181540 0.532898
vt 0.182903 0.554400
vt 0.179334 0.610693
vt 0.185494 0.544755
vt 0.755422 0.812642
vt 0.755617 0.868083
vt 0.755354 0.882027
vt 0.753585 0.898531
vt 0.754891 0.763240
vt 0.750491 0.794039
vt 0.750154 0.849521
vt 0.753728 0.909244
vt 0.751060 0.878389
vt 0.751627 0.889327
vt 0.752600 0.758305
vt 0.753606 0.773972
vt 0.753471 0.835305
vt 0.752266 0.816546
vt 0.754808 0.770481
vt 0.753613 0.791495
vt 0.753478 0.856287
vt 0.754910 0.831125
vt 0.754662 0.814371
vt 0.754540 0.877640
vt 0.754362 0.892238
vt 0.753462 0.903386
vt 0.754601 0.756488
vt 0.752403 0.772666
vt 0.752030 0.833741
vt 0.753488 0.916055
vt 0.752347 0.870072
vt 0.752572 0.884776
vt 0.752117 0.755480
vt 0.752982 0.771762
vt 0.752883 0.839419
vt 0.751848 0.819924
vt 0.754008 0.766766
vt 0.752992 0.791050
vt 0.752896 0.862513
vt 0.754112 0.833437
vt 0.753896 0.815228
vt 0.753810 0.885002
vt 0.753662 0.901246
vt 0.752896 0.914382
vt 0.753827 0.751559
vt 0.751953 0.771479
vt 0.751651 0.839081
vt 0.752922 0.928306
vt 0.751932 0.878776
vt 0.752129 0.894748
vt 0.755331 0.761032
vt 0.756566 0.776549
vt 0.756425 0.841029
vt 0.754947 0.822449
vt 0.758031 0.771788
vt 0.756580 0.794931
vt 0.756442 0.863038
vt 0.758179 0.835328
vt 0.757870 0.817974
vt 0.757747 0.884472
vt 0.757536 0.899952
vt 0.756443 0.912472
vt 0.757772 0.757294
vt 0.755096 0.776280
vt 0.754666 0.840706
vt 0.756480 0.925742
vt 0.755067 0.878537
vt 0.755349 0.893759
vt 0.749105 0.760440
vt 0.751078 0.775828
vt 0.750768 0.832638
vt 0.748406 0.814212
vt 0.753450 0.773602
vt 0.751078 0.792096
vt 0.750768 0.852117
vt 0.753608 0.829972
vt 0.753131 0.814212
vt 0.752847 0.872830
vt 0.752486 0.886230
vt 0.750705 0.895817
vt 0.753052 0.760440
vt 0.748707 0.773601
vt 0.747929 0.829972
vt 0.750748 0.907597
vt 0.748528 0.863958
vt 0.748963 0.877795
s 0
usemtl Texture
f 2/1/1 1/2/1 7/3/1 36/4/1 35/5/1 34/6/1 6/7/1 5/8/1 4/9/1 3/10/1
f 16/11/2 17/12/2 27/13/2 26/14/2
f 2/15/3 3/16/3 10/17/3 8/18/3
f 36/19/4 7/20/4 17/12/4 16/11/4
f 6/21/5 34/22/5 14/23/5 13/24/5
f 3/16/6 4/25/6 11/26/6 10/17/6
f 7/20/7 1/27/7 9/28/7 17/12/7
f 16/29/8 15/30/8 37/31/8 39/32/8
f 4/25/9 5/33/9 12/34/9 11/26/9
f 1/27/10 2/15/10 8/18/10 9/28/10
f 34/35/11 35/36/11 28/37/11 29/38/11
f 5/33/12 6/21/12 13/24/12 12/34/12
f 18/39/13 20/40/13 21/41/13 22/42/13 23/43/13 24/44/13 25/45/13 26/14/13 27/13/13 19/46/13
f 13/24/14 14/23/14 24/44/14 23/43/14
f 10/17/15 11/26/15 21/41/15 20/40/15
f 17/12/16 9/28/16 19/46/16 27/13/16
f 14/23/17 15/47/17 25/45/17 24/44/17
f 11/26/18 12/34/18 22/42/18 21/41/18
f 9/28/19 8/18/19 18/39/19 19/46/19
f 15/47/20 16/11/20 26/14/20 25/45/20
f 12/34/21 13/24/21 23/43/21 22/42/21
f 8/18/22 10/17/22 20/40/22 18/39/22
f 38/48/23 29/38/23 31/49/23 41/50/23
f 29/38/24 28/37/24 40/51/24 31/49/24
f 14/52/25 34/35/25 29/38/25 38/48/25
f 35/36/26 36/53/26 30/54/26 28/37/26
f 15/30/27 14/52/27 38/48/27 37/31/27
f 36/53/28 16/29/28 39/32/28 30/54/28
f 31/49/29 40/51/29 33/55/29 41/50/29
f 40/51/30 32/56/30 42/57/30 33/55/30
f 39/32/31 37/31/31 33/55/31 42/57/31
f 28/37/32 30/54/32 32/56/32 40/51/32
f 30/54/33 39/32/33 42/57/33 32/56/33
f 37/31/34 38/48/34 41/50/34 33/55/34
f 48/58/35 47/59/35 52/60/35 54/61/35
f 43/62/36 44/63/36 49/64/36 50/65/36
f 53/66/37 50/65/37 56/67/37 59/68/37
f 50/65/38 49/64/38 55/69/38 56/67/38
f 46/70/39 43/62/39 50/65/39 53/66/39
f 44/63/40 45/71/40 51/72/40 49/64/40
f 47/59/41 46/70/41 53/66/41 52/60/41
f 45/71/42 48/58/42 54/61/42 51/72/42
f 56/67/43 55/69/43 58/73/43 59/68/43
f 55/69/44 57/74/44 60/75/44 58/73/44
f 54/61/45 52/60/45 58/73/45 60/75/45
f 49/64/46 51/72/46 57/74/46 55/69/46
f 51/72/47 54/61/47 60/75/47 57/74/47
f 52/60/48 53/66/48 59/68/48 58/73/48
f 66/76/49 65/77/49 70/78/49 72/79/49
f 61/80/50 62/81/50 67/82/50 68/83/50
f 71/84/51 68/83/51 74/85/51 77/86/51
f 68/83/52 67/82/52 73/87/52 74/85/52
f 64/88/53 61/80/53 68/83/53 71/84/53
f 62/81/54 63/89/54 69/90/54 67/82/54
f 65/77/55 64/88/55 71/84/55 70/78/55
f 63/89/56 66/76/56 72/79/56 69/90/56
f 74/85/57 73/87/57 76/91/57 77/86/57
f 73/87/58 75/92/58 78/93/58 76/91/58
f 72/79/59 70/78/59 76/91/59 78/93/59
f 67/82/60 69/90/60 75/92/60 73/87/60
f 69/90/61 72/79/61 78/93/61 75/92/61
f 70/78/62 71/84/62 77/86/62 76/91/62
f 84/94/63 83/95/63 88/96/63 90/97/63
f 79/98/64 80/99/64 85/100/64 86/101/64
f 89/102/65 86/101/65 92/103/65 95/104/65
f 86/101/66 85/100/66 91/105/66 92/103/66
f 82/106/67 79/98/67 86/101/67 89/102/67
f 80/99/68 81/107/68 87/108/68 85/100/68
f 83/95/69 82/106/69 89/102/69 88/96/69
f 81/107/70 84/94/70 90/97/70 87/108/70
f 92/103/71 91/105/71 94/109/71 95/104/71
f 91/105/72 93/110/72 96/111/72 94/109/72
f 90/97/73 88/96/73 94/109/73 96/111/73
f 85/100/74 87/108/74 93/110/74 91/105/74
f 87/108/75 90/97/75 96/111/75 93/110/75
f 88/96/76 89/102/76 95/104/76 94/109/76
f 102/112/77 101/113/77 106/114/77 108/115/77
f 97/116/78 98/117/78 103/118/78 104/119/78
f 107/120/79 104/119/79 110/121/79 113/122/79
f 104/119/80 103/118/80 109/123/80 110/121/80
f 100/124/81 97/116/81 104/119/81 107/120/81
f 98/117/82 99/125/82 105/126/82 103/118/82
f 101/113/83 100/124/83 107/120/83 106/114/83
f 99/125/84 102/112/84 108/115/84 105/126/84
f 110/121/85 109/123/85 112/127/85 113/122/85
f 109/123/86 111/128/86 114/129/86 112/127/86
f 108/115/87 106/114/87 112/127/87 114/129/87
f 103/118/88 105/126/88 111/128/88 109/123/88
f 105/126/89 108/115/89 114/129/89 111/128/89
f 106/114/90 107/120/90 113/122/90 112/127/90
