# Blender 4.1.1
# www.blender.org
mtllib Log1.mtl
o Log1
v 0.000177 -0.241093 -0.315616
v -0.000132 0.076038 -0.118414
v 0.223650 -0.241093 -0.223051
v 0.083296 0.076038 -0.083857
v 0.316215 -0.241093 0.000422
v 0.117853 0.076038 -0.000428
v 0.223650 -0.241093 0.223894
v 0.083296 0.076038 0.083000
v 0.000177 -0.241093 0.316460
v -0.000132 0.076038 0.117557
v -0.223295 -0.241093 0.223894
v -0.083561 0.076038 0.083000
v -0.315861 -0.241093 0.000422
v -0.118118 0.076038 -0.000428
v -0.223295 -0.241093 -0.223051
v -0.083561 0.076038 -0.083857
v 0.000177 0.074945 -0.315616
v 0.223650 0.090744 -0.223051
v 0.316215 0.074945 0.000422
v 0.223650 0.090501 0.223894
v -0.223295 0.085755 0.223894
v -0.315861 0.088676 0.000422
v -0.223295 0.074945 -0.223051
v -0.000132 0.076038 -0.243559
v 0.171787 0.091838 -0.172347
v 0.242998 0.076038 -0.000428
v 0.171787 0.091594 0.171491
v -0.000132 0.076038 0.242702
v -0.172051 0.086849 0.171491
v -0.243262 0.089769 -0.000428
v -0.172051 0.076038 -0.172347
v -0.000540 0.075731 0.316567
vn 0.3827 -0.0000 -0.9239
vn 0.9239 -0.0000 0.3827
vn 0.3823 0.0003 0.9240
vn -0.3834 -0.0006 0.9236
vn -0.9239 -0.0000 0.3827
vn -0.0096 0.9998 0.0187
vn -0.9239 -0.0000 -0.3827
vn -0.3827 -0.0000 -0.9239
vn -0.0000 1.0000 -0.0000
vn -0.0000 -1.0000 -0.0000
vn 0.0422 0.9972 0.0622
vn 0.0432 0.9972 -0.0606
vn -0.0614 0.9975 0.0361
vn 0.0411 0.9988 0.0279
vn 0.0088 0.9978 -0.0657
vn -0.0063 0.9999 -0.0152
vn -0.0787 0.9961 0.0411
vn -0.0411 0.9961 0.0787
vn -0.0405 0.9962 -0.0774
vn -0.0774 0.9962 -0.0405
vn 0.0539 0.9981 -0.0282
vn 0.1015 0.9944 -0.0307
vn 0.0737 0.9970 -0.0231
vn -0.0615 0.9971 -0.0439
vn 0.9239 -0.0000 -0.3827
vt 0.512747 0.766092
vt 0.512747 0.995807
vt 0.513859 0.995807
vt 0.513859 0.766092
vt 0.514320 0.995807
vt 0.514320 0.766092
vt 0.512747 0.981411
vt 0.511634 0.995807
vt 0.511634 0.766092
vt 0.511173 0.995807
vt 0.511173 0.766092
vt 0.514603 0.934962
vt 0.514249 0.934962
vt 0.513886 0.934962
vt 0.514347 0.934962
vt 0.491567 0.966533
vt 0.491151 0.966533
vt 0.490979 0.966533
vt 0.491152 0.966533
vt 0.491567 0.966533
vt 0.491982 0.966533
vt 0.492154 0.966533
vt 0.491982 0.966533
vt 0.513522 0.787407
vt 0.514634 0.787407
vt 0.515095 0.787407
vt 0.512409 0.787407
vt 0.511948 0.787407
vt 0.516316 0.934962
vt 0.516670 0.934962
vt 0.517033 0.934962
vt 0.516572 0.934962
vt 0.515459 0.934962
vt 0.515437 0.934962
vt 0.515452 0.934962
vt 0.494280 0.923127
vt 0.494695 0.923127
vt 0.495136 0.923128
vt 0.494280 0.923128
vt 0.494867 0.923127
vt 0.495490 0.923128
vt 0.494695 0.923127
vt 0.494280 0.923128
vt 0.493864 0.923127
vt 0.493424 0.923128
vt 0.493692 0.923127
vt 0.493069 0.923128
vt 0.493864 0.923127
s 0
usemtl Texture
f 1/1/1 17/2/1 18/3/1 3/4/1
f 19/5/2 20/3/2 7/4/2 5/6/2
f 20/3/3 32/7/3 9/1/3 7/4/3
f 21/8/4 11/9/4 9/1/4 32/7/4
f 21/8/5 22/10/5 13/11/5 11/9/5
f 29/12/6 30/13/6 22/14/6 21/15/6
f 22/10/7 23/8/7 15/9/7 13/11/7
f 23/8/8 17/2/8 1/1/8 15/9/8
f 2/16/9 16/17/9 14/18/9 12/19/9 10/20/9 8/21/9 6/22/9 4/23/9
f 1/24/10 3/25/10 5/26/10 7/25/10 9/24/10 11/27/10 13/28/10 15/27/10
f 25/29/11 26/30/11 19/31/11 18/32/11
f 26/30/12 27/29/12 20/32/12 19/31/12
f 27/29/13 28/33/13 32/34/13 20/32/13
f 28/33/14 29/12/14 21/15/14 32/35/14
f 30/13/15 31/12/15 23/15/15 22/14/15
f 31/12/16 24/33/16 17/33/16 23/15/16
f 2/36/17 4/37/17 25/38/17 24/39/17
f 4/37/18 6/40/18 26/41/18 25/38/18
f 6/40/19 8/42/19 27/38/19 26/41/19
f 8/42/20 10/43/20 28/39/20 27/38/20
f 10/43/21 12/44/21 29/45/21 28/39/21
f 12/44/22 14/46/22 30/47/22 29/45/22
f 14/46/23 16/48/23 31/45/23 30/47/23
f 16/48/9 2/36/9 24/39/9 31/45/9
f 24/33/24 25/29/24 18/32/24 17/33/24
f 18/3/25 19/5/25 5/6/25 3/4/25
