# Blender 4.1.1
# www.blender.org
mtllib Log2.mtl
o Log2
v 0.946058 0.019723 -0.468530
v 0.946058 0.284994 -0.348195
v 0.946058 0.394873 -0.057680
v 0.946058 0.284994 0.232834
v 0.946058 0.019723 0.353169
v 0.946058 -0.245548 0.232834
v 0.946058 -0.355427 -0.057680
v 0.946058 -0.245548 -0.348195
v -1.459705 0.039053 -0.468530
v -1.475505 0.329567 -0.348195
v -1.459705 0.449902 -0.057680
v -1.475261 0.329567 0.232834
v -1.470516 -0.251462 0.232834
v -1.473437 -0.371797 -0.057680
v -1.459705 -0.251462 -0.348195
v -1.460799 0.038650 -0.374855
v -1.476599 0.262145 -0.282280
v -1.460799 0.354720 -0.058785
v -1.476355 0.262145 0.164709
v -1.460799 0.038650 0.257284
v -1.471610 -0.184844 0.164709
v -1.474530 -0.277419 -0.058785
v -1.460799 -0.184844 -0.282280
v -1.460492 0.038120 0.353309
v 1.259907 0.039053 0.352072
v 1.275707 0.329567 0.231737
v 1.259907 0.449902 -0.058778
v 1.275464 0.329567 -0.349292
v 1.270718 -0.251462 -0.349292
v 1.273639 -0.371797 -0.058778
v 1.259908 -0.251462 0.231737
v 1.261001 0.038650 0.258397
v 1.276801 0.262145 0.165822
v 1.261001 0.354720 -0.057673
v 1.276557 0.262145 -0.281167
v 1.261001 0.038650 -0.373742
v 1.271812 -0.184844 -0.281167
v 1.274733 -0.277419 -0.057673
v 1.261001 -0.184844 0.165822
v 1.260694 0.038120 -0.469767
v -0.257391 -0.026677 -0.402690
v -0.264025 0.217283 -0.301639
v -0.257391 0.318334 -0.057679
v -0.263923 0.217283 0.186281
v -0.261931 -0.270637 0.186281
v -0.263157 -0.371688 -0.057679
v -0.257391 -0.270637 -0.301639
v -0.257722 -0.027069 0.287391
v 0.341267 0.237644 -0.324926
v 0.344582 0.341518 -0.057680
v 0.341318 0.237644 0.209567
v 0.342313 -0.263903 0.209567
v 0.341700 -0.367777 -0.057680
v 0.344582 -0.263903 -0.324926
v 0.344417 -0.013313 0.320294
v 0.344582 -0.013130 -0.435623
v -1.031914 -0.007536 -0.445103
v -1.044452 0.248249 -0.331630
v -1.031914 0.354198 -0.057680
v -1.044259 0.248249 0.216270
v -1.040493 -0.263321 0.216270
v -1.042811 -0.369270 -0.057680
v -1.031914 -0.263321 -0.331630
v -1.032538 -0.008227 0.329855
v -1.377009 0.278440 -0.280520
v -1.361209 0.054946 -0.373095
v -1.361209 0.371015 -0.057025
v -1.376765 0.278440 0.166469
v -1.361209 0.054946 0.259044
v -1.372020 -0.168549 0.166469
v -1.374940 -0.261124 -0.057025
v -1.361209 -0.168549 -0.280520
v -1.361209 0.130798 -0.140674
v -1.361209 0.047369 -0.175231
v -1.361209 0.165355 -0.057246
v -1.361209 0.130798 0.026182
v -1.361209 0.047369 0.060739
v -1.361209 -0.036059 0.026182
v -1.361209 -0.070616 -0.057246
v -1.361209 -0.036059 -0.140674
v 1.146720 0.262306 0.164312
v 1.130920 0.038811 0.256887
v 1.130920 0.354880 -0.059182
v 1.146476 0.262306 -0.282677
v 1.130920 0.038811 -0.375252
v 1.141731 -0.184684 -0.282677
v 1.144652 -0.277258 -0.059182
v 1.130920 -0.184684 0.164312
v 1.130920 0.118387 0.024523
v 1.130920 0.034958 0.059080
v 1.130920 0.152944 -0.058905
v 1.130920 0.118387 -0.142334
v 1.130920 0.034958 -0.176891
v 1.130920 -0.048470 -0.142334
v 1.130920 -0.083027 -0.058905
v 1.130920 -0.048470 0.024523
v -0.985927 -0.039433 0.283801
v -1.020272 -0.116777 0.252292
v -0.903011 -0.009954 0.304059
v -0.820095 -0.045608 0.301199
v -0.785750 -0.125510 0.276897
v -0.820095 -0.202854 0.245389
v -0.903011 -0.232334 0.225131
v -0.985927 -0.196679 0.227991
v -0.957943 -0.204979 0.589400
v -0.970232 -0.232654 0.578126
v -0.928274 -0.194431 0.596649
v -0.898605 -0.207189 0.595626
v -0.886316 -0.235779 0.586930
v -0.898605 -0.263454 0.575656
v -0.928274 -0.274002 0.568407
v -0.957943 -0.261244 0.569431
v 0.418164 -0.024235 -0.366723
v 0.446516 -0.101579 -0.329729
v 0.340025 0.005244 -0.401071
v 0.257872 -0.030410 -0.412653
v 0.219829 -0.110312 -0.394685
v 0.248181 -0.187656 -0.357691
v 0.326320 -0.217135 -0.323343
v 0.408473 -0.181481 -0.311761
v 0.443671 -0.189781 -0.672539
v 0.453816 -0.217456 -0.659302
v 0.415712 -0.179233 -0.684829
v 0.386316 -0.191990 -0.688974
v 0.372704 -0.220581 -0.682544
v 0.382849 -0.248256 -0.669307
v 0.410808 -0.258804 -0.657017
v 0.440204 -0.246046 -0.652873
v 0.898520 0.224221 0.250826
v 0.862385 0.143958 0.270986
v 0.982483 0.257180 0.246531
v 1.065088 0.223528 0.260617
v 1.097946 0.142978 0.284833
v 1.061810 0.062714 0.304993
v 0.977848 0.029755 0.309288
v 0.895243 0.063407 0.295202
v 0.944403 0.262272 0.594376
v 0.931473 0.233553 0.601589
v 0.974446 0.274065 0.592839
v 1.004004 0.262024 0.597879
v 1.015761 0.233202 0.606544
v 1.002831 0.204482 0.613758
v 0.972788 0.192689 0.615294
v 0.943231 0.204730 0.610254
vn 0.1015 0.3959 -0.9127
vn -0.0846 0.9306 0.3561
vn -0.0695 0.4072 0.9107
vn -0.0251 -0.4086 0.9124
vn 0.0168 -0.9337 0.3578
vn -0.9999 -0.0074 0.0144
vn 0.0169 -0.9337 -0.3577
vn -0.0252 -0.4085 -0.9124
vn 1.0000 -0.0000 -0.0000
vn -0.9983 0.0325 0.0479
vn -0.9984 0.0333 -0.0466
vn -0.9985 -0.0473 0.0278
vn -0.9993 0.0317 0.0215
vn -0.9987 0.0068 -0.0505
vn -0.9999 -0.0048 -0.0117
vn 0.0780 -0.3769 -0.9230
vn -0.1431 0.9150 -0.3772
vn -0.0787 0.3815 0.9210
vn 0.0458 -0.3795 0.9241
vn 0.1564 -0.9163 -0.3687
vn -0.0466 0.3842 -0.9221
vn -0.1564 0.9159 0.3698
vn 0.1436 -0.9178 0.3700
vn -0.9983 -0.0474 -0.0338
vn -0.0846 0.9306 -0.3561
vn -0.0364 0.3980 0.9167
vn -0.1435 0.9187 -0.3679
vn -0.0422 0.3976 -0.9166
vn 0.0044 -0.3981 -0.9174
vn -0.0330 -0.9292 -0.3680
vn 0.9999 -0.0074 -0.0144
vn -0.0310 -0.9295 0.3675
vn 0.0117 -0.3973 0.9176
vn 0.9983 0.0325 -0.0479
vn 0.9984 0.0333 0.0466
vn 0.9985 -0.0473 -0.0278
vn 0.9993 0.0317 -0.0215
vn 0.9987 0.0068 0.0505
vn 0.9999 -0.0048 0.0117
vn -0.0056 -0.9240 0.3823
vn -0.0103 0.3822 0.9240
vn 0.0056 0.9240 -0.3824
vn 0.0033 -0.9238 -0.3829
vn -0.0112 -0.3820 0.9241
vn -0.0033 0.9239 0.3827
vn 0.0112 0.3827 -0.9238
vn 0.0102 -0.3833 -0.9236
vn 0.9983 -0.0474 0.0338
vn -0.1410 0.9191 0.3680
vn 0.0470 0.9269 -0.3722
vn 0.0362 -0.3942 -0.9183
vn 0.0013 -0.9286 -0.3711
vn 0.0013 -0.9286 0.3711
vn 0.0361 -0.3959 0.9176
vn 0.0554 0.3951 0.9170
vn 0.0470 0.9270 0.3722
vn -0.0538 0.3920 -0.9184
vn -0.0695 0.4073 -0.9107
vn -0.0406 0.9277 -0.3711
vn -0.0363 -0.3932 -0.9187
vn 0.0010 -0.9282 -0.3721
vn 0.0010 -0.9282 0.3721
vn -0.0361 -0.3934 0.9187
vn -0.0538 0.3918 0.9185
vn -0.0406 0.9277 0.3711
vn 0.1942 0.9072 0.3733
vn 0.1012 0.3950 0.9131
vn 0.0160 -0.3952 0.9185
vn -0.0029 -0.9282 0.3721
vn -0.0029 -0.9281 -0.3722
vn 0.0161 -0.3934 -0.9192
vn 0.1942 0.9071 -0.3734
vn 0.0554 0.3956 -0.9167
vn -1.0000 -0.0000 -0.0000
vn -0.9980 -0.0594 0.0194
vn -0.9980 -0.0209 0.0600
vn -0.9980 -0.0205 -0.0591
vn -0.9981 -0.0585 -0.0190
vn -0.9990 0.0420 -0.0164
vn -0.9975 0.0677 -0.0186
vn -0.9984 0.0524 -0.0230
vn 0.9980 -0.0599 -0.0205
vn 0.9980 -0.0213 -0.0602
vn 0.9980 -0.0208 0.0592
vn 0.9981 -0.0589 0.0201
vn 0.9990 0.0417 0.0156
vn 0.9976 0.0664 0.0180
vn 0.9984 0.0514 0.0234
vn 0.1106 0.3324 -0.9366
vn -0.1106 -0.3324 0.9366
vn -0.9187 -0.3951 0.0006
vn 0.3525 -0.9317 -0.0872
vn 0.8857 0.2647 0.3814
vn -0.3953 0.7920 0.4652
vn -0.3952 -0.9080 -0.1393
vn 0.8858 -0.4458 0.1288
vn 0.3523 0.7776 0.5207
vn -0.9186 0.3061 0.2499
vn 0.2716 -0.3324 -0.9032
vn 0.9048 -0.3951 0.1589
vn -0.3623 -0.9317 0.0246
vn -0.8060 0.2647 -0.5294
vn 0.4700 0.7920 -0.3895
vn 0.3650 -0.9080 0.2058
vn -0.8500 -0.4458 -0.2806
vn -0.2566 0.7776 -0.5740
vn 0.9481 0.3061 -0.0866
vn -0.0555 0.2666 0.9622
vn -0.9170 -0.2926 0.2709
vn 0.3468 -0.8255 0.4453
vn 0.9066 0.4053 0.1179
vn -0.3673 0.9286 -0.0538
vn -0.4027 -0.8107 0.4250
vn 0.8919 -0.3216 0.3180
vn 0.3823 0.9233 -0.0361
vn -0.9023 0.4247 0.0735
vt 0.510903 0.835384
vt 0.510693 0.785031
vt 0.511772 0.783171
vt 0.511921 0.833908
vt 0.514755 0.856675
vt 0.512358 0.857060
vt 0.512149 0.785879
vt 0.514755 0.785879
vt 0.511364 0.856695
vt 0.511070 0.785879
vt 0.512358 0.856942
vt 0.514755 0.857015
vt 0.516373 0.783630
vt 0.514368 0.783286
vt 0.514378 0.783415
vt 0.516984 0.783759
vt 0.517152 0.856675
vt 0.517361 0.785879
vt 0.518145 0.856675
vt 0.518440 0.785879
vt 0.512363 0.783043
vt 0.514368 0.784902
vt 0.514378 0.785031
vt 0.516373 0.783072
vt 0.516984 0.783200
vt 0.517203 0.784902
vt 0.518064 0.784939
vt 0.512363 0.784902
vt 0.511772 0.785031
vt 0.511533 0.784902
vt 0.516389 0.794794
vt 0.517219 0.796624
vt 0.516389 0.795352
vt 0.514384 0.795008
vt 0.512379 0.796624
vt 0.511549 0.796624
vt 0.512379 0.794765
vt 0.514384 0.796624
vt 0.517152 0.857066
vt 0.511079 0.748937
vt 0.512159 0.747077
vt 0.514765 0.748937
vt 0.517370 0.747106
vt 0.518451 0.748844
vt 0.517370 0.747665
vt 0.514765 0.747321
vt 0.516759 0.747536
vt 0.514755 0.747192
vt 0.512159 0.748937
vt 0.512750 0.746948
vt 0.514755 0.748808
vt 0.516759 0.746977
vt 0.517590 0.748808
vt 0.512750 0.748808
vt 0.511920 0.748808
vt 0.514768 0.764119
vt 0.516773 0.762288
vt 0.517603 0.764119
vt 0.516773 0.762847
vt 0.514768 0.762503
vt 0.512764 0.764119
vt 0.512764 0.762260
vt 0.511933 0.764119
vt 0.514378 0.835384
vt 0.514378 0.926550
vt 0.512190 0.925769
vt 0.511921 0.835384
vt 0.511283 0.926550
vt 0.512190 0.926550
vt 0.514378 0.834102
vt 0.514378 0.925871
vt 0.516835 0.834375
vt 0.516566 0.926015
vt 0.517473 0.926511
vt 0.517854 0.835311
vt 0.516835 0.833931
vt 0.516566 0.925781
vt 0.517849 0.927531
vt 0.516943 0.928311
vt 0.514755 0.927531
vt 0.516943 0.927530
vt 0.514755 0.928209
vt 0.512566 0.928065
vt 0.511660 0.927570
vt 0.512566 0.928300
vt 0.491567 0.966533
vt 0.491151 0.966533
vt 0.490979 0.966533
vt 0.491152 0.966533
vt 0.491567 0.966533
vt 0.491982 0.966533
vt 0.492154 0.966533
vt 0.491982 0.966533
vt 0.494280 0.923127
vt 0.494695 0.923127
vt 0.495136 0.923128
vt 0.494280 0.923128
vt 0.494867 0.923127
vt 0.495490 0.923128
vt 0.494695 0.923127
vt 0.494280 0.923128
vt 0.493864 0.923127
vt 0.493424 0.923128
vt 0.493692 0.923127
vt 0.493069 0.923128
vt 0.493864 0.923127
vt 0.515237 0.746595
vt 0.515237 0.747461
vt 0.515237 0.749684
vt 0.515237 0.751961
vt 0.515237 0.752959
vt 0.515237 0.752093
vt 0.515237 0.749870
vt 0.515237 0.747593
vt 0.515237 0.740692
vt 0.515237 0.743113
vt 0.515237 0.749326
vt 0.515237 0.755690
vt 0.515237 0.758478
vt 0.515237 0.756057
vt 0.515237 0.749845
vt 0.515237 0.743480
vt 0.515237 0.845473
vt 0.515237 0.844493
vt 0.515237 0.842257
vt 0.515237 0.840075
vt 0.515237 0.839225
vt 0.515237 0.840206
vt 0.515237 0.842442
vt 0.515237 0.844624
vt 0.515237 0.847092
vt 0.515237 0.844351
vt 0.515237 0.838101
vt 0.515237 0.832003
vt 0.515237 0.829630
vt 0.515237 0.832370
vt 0.515237 0.838620
vt 0.515237 0.844718
vt 0.515159 0.857832
vt 0.514744 0.857832
vt 0.514572 0.857832
vt 0.514744 0.857832
vt 0.515160 0.857832
vt 0.515575 0.857832
vt 0.515747 0.857832
vt 0.515575 0.857832
vt 0.515237 0.882293
vt 0.515237 0.884921
vt 0.515237 0.890599
vt 0.515237 0.889658
vt 0.515237 0.891221
vt 0.515237 0.897503
vt 0.515237 0.895101
vt 0.515237 0.892853
vt 0.515237 0.900086
vt 0.515237 0.897457
vt 0.515237 0.895084
vt 0.515237 0.896025
vt 0.515237 0.891157
vt 0.515237 0.884876
vt 0.515237 0.890582
vt 0.515237 0.892830
s 0
usemtl Texture
f 57/1/1 9/2/1 10/3/1 58/4/1
f 50/5/2 51/6/2 4/7/2 3/8/2
f 51/6/3 55/9/3 5/10/3 4/7/3
f 52/11/4 6/7/4 5/10/4 55/9/4
f 52/11/5 53/12/5 7/8/5 6/7/5
f 21/13/6 22/14/6 14/15/6 13/16/6
f 53/12/7 54/17/7 8/18/7 7/8/7
f 54/17/8 56/19/8 1/20/8 8/18/8
f 1/20/9 2/18/9 3/8/9 4/7/9 5/10/9 6/7/9 7/8/9 8/18/9
f 17/21/10 18/22/10 11/23/10 10/3/10
f 18/22/11 19/24/11 12/25/11 11/23/11
f 19/24/12 20/26/12 24/27/12 12/25/12
f 20/26/13 21/13/13 13/16/13 24/27/13
f 22/14/14 23/28/14 15/29/14 14/15/14
f 23/28/15 16/30/15 9/2/15 15/29/15
f 20/26/16 19/24/16 68/31/16 69/32/16
f 22/14/17 21/13/17 70/33/17 71/34/17
f 16/30/18 23/28/18 72/35/18 66/36/18
f 17/21/19 16/30/19 66/36/19 65/37/19
f 19/24/20 18/22/20 67/38/20 68/31/20
f 21/13/21 20/26/21 69/32/21 70/33/21
f 23/28/22 22/14/22 71/34/22 72/35/22
f 18/22/23 17/21/23 65/37/23 67/38/23
f 16/30/24 17/21/24 10/3/24 9/2/24
f 49/39/25 50/5/25 3/8/25 2/18/25
f 5/10/26 25/40/26 26/41/26 4/7/26
f 27/42/27 28/43/27 2/18/27 3/8/27
f 28/43/28 40/44/28 1/20/28 2/18/28
f 29/45/29 8/18/29 1/20/29 40/44/29
f 29/45/30 30/46/30 7/8/30 8/18/30
f 37/47/31 38/48/31 30/46/31 29/45/31
f 30/46/32 31/49/32 6/7/32 7/8/32
f 31/49/33 25/40/33 5/10/33 6/7/33
f 33/50/34 34/51/34 27/42/34 26/41/34
f 34/51/35 35/52/35 28/43/35 27/42/35
f 35/52/36 36/53/36 40/44/36 28/43/36
f 36/53/37 37/47/37 29/45/37 40/44/37
f 38/48/38 39/54/38 31/49/38 30/46/38
f 39/54/39 32/55/39 25/40/39 31/49/39
f 35/52/40 34/51/40 83/56/40 84/57/40
f 37/47/41 36/53/41 85/58/41 86/59/41
f 39/54/42 38/48/42 87/60/42 88/61/42
f 34/51/43 33/50/43 81/62/43 83/56/43
f 36/53/44 35/52/44 84/57/44 85/58/44
f 38/48/45 37/47/45 86/59/45 87/60/45
f 32/55/46 39/54/46 88/61/46 82/63/46
f 33/50/47 32/55/47 82/63/47 81/62/47
f 32/55/48 33/50/48 26/41/48 25/40/48
f 26/41/49 27/42/49 3/8/49 4/7/49
f 58/4/50 59/64/50 43/65/50 42/66/50
f 63/67/51 57/1/51 41/68/51 47/69/51
f 62/70/52 63/67/52 47/69/52 46/71/52
f 61/72/53 62/70/53 46/71/53 45/73/53
f 61/72/54 45/73/54 48/74/54 64/75/54
f 60/76/55 64/75/55 48/74/55 44/77/55
f 59/64/56 60/76/56 44/77/56 43/65/56
f 56/19/57 41/78/57 42/79/57 49/39/57
f 1/20/58 56/19/58 49/39/58 2/18/58
f 42/79/59 43/80/59 50/5/59 49/39/59
f 47/81/60 41/78/60 56/19/60 54/17/60
f 46/82/61 47/81/61 54/17/61 53/12/61
f 45/83/62 46/82/62 53/12/62 52/11/62
f 45/83/63 52/11/63 55/9/63 48/84/63
f 44/85/64 48/84/64 55/9/64 51/6/64
f 43/80/65 44/85/65 51/6/65 50/5/65
f 11/23/66 12/25/66 60/76/66 59/64/66
f 12/25/67 24/27/67 64/75/67 60/76/67
f 13/16/68 61/72/68 64/75/68 24/27/68
f 13/16/69 14/15/69 62/70/69 61/72/69
f 14/15/70 15/29/70 63/67/70 62/70/70
f 15/29/71 9/2/71 57/1/71 63/67/71
f 10/3/72 11/23/72 59/64/72 58/4/72
f 41/68/73 57/1/73 58/4/73 42/66/73
f 74/86/74 80/87/74 79/88/74 78/89/74 77/90/74 76/91/74 75/92/74 73/93/74
f 74/94/75 73/95/75 65/96/75 66/97/75
f 73/95/76 75/98/76 67/99/76 65/96/76
f 75/98/77 76/100/77 68/96/77 67/99/77
f 76/100/78 77/101/78 69/97/78 68/96/78
f 77/101/79 78/102/79 70/103/79 69/97/79
f 78/102/80 79/104/80 71/105/80 70/103/80
f 79/104/81 80/106/81 72/103/81 71/105/81
f 80/106/74 74/94/74 66/97/74 72/103/74
f 90/86/9 96/87/9 95/88/9 94/89/9 93/90/9 92/91/9 91/92/9 89/93/9
f 90/94/82 89/95/82 81/96/82 82/97/82
f 89/95/83 91/98/83 83/99/83 81/96/83
f 91/98/84 92/100/84 84/96/84 83/99/84
f 92/100/85 93/101/85 85/97/85 84/96/85
f 93/101/86 94/102/86 86/103/86 85/97/86
f 94/102/87 95/104/87 87/105/87 86/103/87
f 95/104/88 96/106/88 88/103/88 87/105/88
f 96/106/9 90/94/9 82/97/9 88/103/9
f 98/86/89 97/93/89 99/92/89 100/91/89 101/90/89 102/89/89 103/88/89 104/87/89
f 106/107/90 112/108/90 111/109/90 110/110/90 109/111/90 108/112/90 107/113/90 105/114/90
f 98/115/91 104/116/91 112/108/91 106/107/91
f 103/117/92 102/118/92 110/110/92 111/109/92
f 101/119/93 100/120/93 108/112/93 109/111/93
f 99/121/94 97/122/94 105/114/94 107/113/94
f 104/116/95 103/117/95 111/109/95 112/108/95
f 102/118/96 101/119/96 109/111/96 110/110/96
f 100/120/97 99/121/97 107/113/97 108/112/97
f 97/122/98 98/115/98 106/107/98 105/114/98
f 122/123/99 128/124/99 127/125/99 126/126/99 125/127/99 124/128/99 123/129/99 121/130/99
f 114/131/100 120/132/100 128/124/100 122/123/100
f 119/133/101 118/134/101 126/126/101 127/125/101
f 117/135/102 116/136/102 124/128/102 125/127/102
f 115/137/103 113/138/103 121/130/103 123/129/103
f 120/132/104 119/133/104 127/125/104 128/124/104
f 118/134/105 117/135/105 125/127/105 126/126/105
f 116/136/106 115/137/106 123/129/106 124/128/106
f 113/138/107 114/131/107 122/123/107 121/130/107
f 138/139/108 144/140/108 143/141/108 142/142/108 141/143/108 140/144/108 139/145/108 137/146/108
f 130/147/109 136/148/109 144/149/109 138/150/109
f 135/151/110 134/152/110 142/153/110 143/154/110
f 133/155/111 132/156/111 140/157/111 141/158/111
f 131/159/112 129/160/112 137/161/112 139/162/112
f 136/148/113 135/151/113 143/154/113 144/149/113
f 134/152/114 133/155/114 141/158/114 142/153/114
f 132/156/115 131/159/115 139/162/115 140/157/115
f 129/160/116 130/147/116 138/150/116 137/161/116
