# Blender 4.1.1
# www.blender.org
mtllib Reed.mtl
o Reed
v 0.024339 -0.415991 -0.060142
v 0.024612 0.034400 -0.061045
v 0.054198 -0.416003 -0.042902
v 0.054434 0.038542 -0.043103
v 0.054198 -0.416003 -0.008463
v 0.054434 0.038542 -0.008262
v 0.024339 -0.415991 0.008778
v 0.024612 0.034400 0.009681
v -0.005524 -0.415951 -0.008460
v -0.006221 0.030151 -0.007668
v -0.005524 -0.415951 -0.042904
v -0.006221 0.030151 -0.043696
v 0.005884 0.207954 -0.041463
v -0.020266 0.199886 -0.057416
v 0.005884 0.207954 -0.009902
v -0.020266 0.199886 0.006052
v -0.046677 0.191761 -0.009748
v -0.046677 0.191761 -0.041617
v 0.037335 0.254896 -0.069518
v -0.035254 0.232668 -0.113184
v 0.037335 0.254896 0.018153
v -0.035254 0.232668 0.061819
v -0.107597 0.210547 0.017999
v -0.107597 0.210547 -0.069363
v -0.057507 0.573362 -0.069196
v -0.129598 0.551391 -0.112795
v -0.057507 0.573362 0.017831
v -0.129598 0.551391 0.061430
v -0.201836 0.529362 0.017923
v -0.201836 0.529362 -0.069288
v -0.117324 0.576240 -0.036646
v -0.135477 0.570633 -0.047630
v -0.117324 0.576240 -0.014718
v -0.135477 0.570633 -0.003734
v -0.153651 0.565014 -0.014705
v -0.153651 0.565014 -0.036659
v -0.130090 0.621254 -0.037091
v -0.149000 0.615515 -0.048501
v -0.130090 0.621254 -0.014272
v -0.149000 0.615515 -0.002863
v -0.167910 0.609776 -0.014272
v -0.167910 0.609776 -0.037091
v -0.123194 -0.507335 0.008345
v -0.131009 -0.221593 0.004160
v -0.123194 -0.507335 -0.059710
v -0.133834 -0.217637 -0.052215
v 0.025895 -0.507335 0.008345
v -0.011306 -0.183272 0.000850
v 0.025895 -0.507335 -0.059710
v -0.014132 -0.179316 -0.055525
v -0.307481 0.268670 -0.023985
v -0.307481 0.268670 -0.027380
v -0.301266 0.276245 -0.027380
v -0.301266 0.276245 -0.023985
v 0.170766 -0.507335 0.052844
v 0.175266 -0.221593 0.060482
v 0.135383 -0.507335 0.110979
v 0.148369 -0.217637 0.110108
v 0.043411 -0.507335 -0.024669
v 0.071292 -0.183272 0.001075
v 0.008028 -0.507335 0.033466
v 0.044396 -0.179316 0.050701
v 0.335645 0.264783 0.149959
v 0.333825 0.264783 0.152947
v 0.328355 0.272590 0.149618
v 0.330174 0.272590 0.146629
v 0.093324 -0.507335 0.052844
v 0.097824 -0.221593 0.060482
v 0.057941 -0.507335 0.110979
v 0.070928 -0.217637 0.110108
v -0.034031 -0.507335 -0.024669
v -0.006150 -0.183272 0.001075
v -0.069414 -0.507335 0.033466
v -0.033046 -0.179316 0.050701
v 0.021092 -0.060814 0.329276
v 0.018160 -0.064841 0.330760
v 0.005772 -0.056923 0.327772
v 0.008705 -0.052895 0.326288
v -0.078589 -0.507335 -0.042757
v -0.051196 -0.329292 -0.073979
v -0.039997 -0.507335 -0.096735
v -0.017479 -0.334349 -0.123812
v 0.041578 -0.507335 0.045190
v 0.059906 -0.311080 -0.001292
v 0.080169 -0.507335 -0.008788
v 0.093623 -0.316136 -0.051125
v 0.086966 -0.084779 -0.366235
v 0.089434 -0.089750 -0.366861
v 0.103755 -0.083028 -0.363772
v 0.101287 -0.078057 -0.363147
v -0.158136 -0.030053 -0.002105
v -0.221818 0.170634 -0.012163
v -0.183875 0.078770 -0.006688
v -0.221818 0.170634 -0.039202
v -0.158915 -0.030854 -0.048031
v -0.184104 0.078536 -0.044317
v -0.165193 0.214254 -0.039529
v -0.068735 0.039289 -0.048779
v -0.108623 0.137121 -0.044632
v -0.165193 0.214254 -0.011836
v -0.068164 0.039469 -0.003742
v -0.108456 0.137174 -0.007072
v 0.190058 -0.079323 0.074933
v 0.257264 0.198811 0.132021
v 0.217067 0.072592 0.098810
v 0.245543 0.198991 0.151480
v 0.165672 -0.080694 0.117048
v 0.198039 0.072244 0.130733
v 0.203188 0.236072 0.126261
v 0.083808 -0.007520 0.068482
v 0.133909 0.129801 0.092234
v 0.215496 0.236080 0.106056
v 0.107840 -0.006997 0.027574
v 0.153005 0.129957 0.060446
v 0.092910 -0.152976 0.120298
v 0.049016 -0.067462 0.249570
v 0.082598 -0.118693 0.161569
v 0.037473 -0.083280 0.255437
v 0.069479 -0.187270 0.133128
v 0.063077 -0.145794 0.171682
v -0.008193 -0.056162 0.238997
v -0.017604 -0.140158 0.090676
v -0.008796 -0.106930 0.135931
v 0.003403 -0.040239 0.233123
v 0.009350 -0.109884 0.078499
v 0.011477 -0.080290 0.125917
v -0.014382 -0.155197 -0.157470
v 0.043073 -0.101725 -0.279612
v 0.003098 -0.129183 -0.201299
v 0.053540 -0.122780 -0.282281
v 0.004086 -0.195728 -0.163002
v 0.018840 -0.161611 -0.205502
v 0.107858 -0.098559 -0.261284
v 0.097567 -0.155520 -0.119270
v 0.096408 -0.128048 -0.168464
v 0.097320 -0.077333 -0.258612
v 0.074226 -0.118779 -0.114620
v 0.079476 -0.096265 -0.164458
vn 0.5079 -0.0013 -0.8614
vn 1.0000 -0.0005 -0.0000
vn 0.5079 -0.0013 0.8614
vn -0.4950 -0.0019 0.8689
vn 0.4881 0.1497 -0.8599
vn -1.0000 -0.0016 -0.0000
vn -0.4950 -0.0019 -0.8689
vn -0.0009 -1.0000 -0.0000
vn -0.0371 -0.8650 -0.5004
vn 0.4881 0.1497 0.8599
vn -0.4802 -0.1101 -0.8703
vn -0.4802 -0.1101 0.8703
vn 0.9613 0.2755 -0.0000
vn -0.9701 -0.2428 -0.0000
vn -0.9590 -0.2835 -0.0000
vn -0.0371 -0.8650 0.5004
vn 0.8308 -0.5566 -0.0000
vn -0.2947 -0.9556 -0.0000
vn 0.5246 -0.6660 0.5304
vn 0.5246 -0.6660 -0.5304
vn -0.4354 0.8522 0.2900
vn 0.4787 0.1431 0.8662
vn 0.4787 0.1431 -0.8662
vn -0.4799 -0.1413 -0.8659
vn -0.4799 -0.1413 0.8659
vn 0.9584 0.2854 -0.0000
vn 0.4836 0.1288 0.8657
vn 0.0481 0.9988 -0.0000
vn -0.5948 0.8039 -0.0000
vn -0.1139 0.9497 0.2916
vn -0.1139 0.9497 -0.2916
vn -0.4354 0.8522 -0.2900
vn -0.2904 0.9569 -0.0000
vn 0.4836 0.1288 -0.8657
vn -0.4738 -0.1594 -0.8661
vn -0.4738 -0.1594 0.8661
vn 0.9621 0.2728 -0.0000
vn -0.9528 -0.3035 -0.0000
vn -0.9992 -0.0322 0.0217
vn -0.0148 0.0177 -0.9997
vn 0.9929 0.1175 -0.0188
vn 0.0095 0.0199 0.9998
vn -0.0000 -1.0000 -0.0000
vn 0.9693 0.2449 -0.0233
vn 0.4146 0.9100 -0.0000
vn -0.0595 0.0667 0.9960
vn -0.0595 0.0667 -0.9960
vn -0.7731 0.6342 -0.0000
vn -0.9902 -0.1365 0.0307
vn 0.0092 0.0281 0.9996
vn -0.0302 0.0210 -0.9993
vn 0.8648 -0.0322 0.5010
vn -0.5071 0.0177 0.8617
vn -0.8579 0.1175 -0.5001
vn 0.5117 0.0199 -0.8589
vn -0.8410 0.2449 -0.4824
vn -0.2505 0.9561 -0.1522
vn 0.3772 -0.1934 -0.9057
vn -0.2553 0.3104 0.9157
vn 0.6604 0.6342 0.4020
vn 0.8631 -0.1365 0.4863
vn 0.5099 0.0284 -0.8598
vn -0.4929 0.0209 0.8699
vn -0.7171 0.5878 -0.3745
vn -0.7787 0.6142 0.1278
vn 0.4925 0.8652 0.0945
vn -0.5332 -0.8428 0.0734
vn -0.0036 0.3480 0.9375
vn 0.8052 -0.3493 0.4792
vn 0.5688 0.5492 -0.6122
vn -0.5703 -0.4855 0.6626
vn -0.8199 0.0216 -0.5721
vn 0.5690 -0.2079 -0.7956
vn 0.8204 0.0630 0.5684
vn -0.5671 0.2333 0.7900
vn 0.7604 0.2654 0.5927
vn 0.8968 0.4413 0.0310
vn -0.4060 0.9135 -0.0241
vn 0.4500 -0.8800 -0.1520
vn 0.1239 0.1841 -0.9751
vn -0.7657 -0.1060 -0.6344
vn -0.5358 0.4564 0.7104
vn 0.5361 -0.3251 -0.7790
vn -0.9248 -0.3803 0.0046
vn -0.9737 -0.2272 0.0146
vn -0.0360 0.0402 -0.9985
vn -0.0288 0.0289 -0.9992
vn 0.8059 0.5921 -0.0025
vn 0.9252 0.3794 -0.0093
vn -0.0323 0.0424 0.9986
vn -0.0140 0.0338 0.9993
vn -0.7530 -0.6580 -0.0000
vn 0.7953 -0.3770 0.4747
vn 0.8429 -0.2244 0.4890
vn -0.4872 0.0391 0.8724
vn -0.4934 0.0280 0.8694
vn -0.6939 0.5869 -0.4173
vn -0.7989 0.3746 -0.4705
vn 0.5463 0.0423 -0.8365
vn 0.5281 0.0348 -0.8485
vn 0.5578 -0.7560 0.3425
vn 0.7750 -0.3702 0.5122
vn 0.7842 -0.3597 0.5056
vn -0.5739 -0.7320 0.3671
vn -0.5902 -0.5941 0.5465
vn -0.8174 0.5177 -0.2527
vn -0.7897 0.5471 -0.2777
vn 0.5571 0.7915 -0.2512
vn 0.5810 0.6849 -0.4397
vn 0.8172 -0.4753 0.3259
vn -0.7921 -0.3215 -0.5188
vn -0.8014 -0.3073 -0.5132
vn 0.4702 -0.8555 -0.2167
vn 0.5197 -0.7429 -0.4220
vn 0.8729 0.4214 0.2459
vn 0.8449 0.4627 0.2684
vn -0.4349 0.8954 0.0950
vn -0.4902 0.8168 0.3042
vn -0.8096 -0.3420 -0.4771
vt 0.323502 0.735484
vt 0.323510 0.831959
vt 0.323603 0.832932
vt 0.323588 0.735481
vt 0.323414 0.830961
vt 0.323415 0.735492
vt 0.323302 0.889549
vt 0.323383 0.891444
vt 0.513119 0.775517
vt 0.513037 0.770025
vt 0.512873 0.776481
vt 0.513083 0.790395
vt 0.323220 0.887640
vt 0.512664 0.926895
vt 0.513201 0.780969
vt 0.513294 0.804376
vt 0.512873 0.940752
vt 0.512847 0.951694
vt 0.512765 0.946243
vt 0.513082 0.954571
vt 0.323029 0.950788
vt 0.323110 0.952679
vt 0.323053 0.967858
vt 0.322969 0.965923
vt 0.512928 0.957133
vt 0.322884 0.963988
vt 0.322948 0.948894
vt 0.319258 0.762448
vt 0.319041 0.834462
vt 0.318962 0.835459
vt 0.322291 0.845117
vt 0.323403 0.762448
vt 0.322369 0.844120
vt 0.320772 0.900211
vt 0.320788 0.900256
vt 0.318090 0.944306
vt 0.316011 0.961535
vt 0.316516 0.933313
vt 0.315245 0.953069
vt 0.316516 0.933313
vt 0.318287 0.882735
vt 0.318265 0.882533
vt 0.320788 0.900256
vt 0.318265 0.882533
vt 0.320772 0.900211
vt 0.327431 0.762448
vt 0.327556 0.834462
vt 0.326809 0.835459
vt 0.326448 0.762448
vt 0.323918 0.845117
vt 0.322907 0.762448
vt 0.324666 0.844120
vt 0.323890 0.762448
vt 0.325014 0.888414
vt 0.325682 0.888546
vt 0.328675 0.949807
vt 0.328333 0.949805
vt 0.329604 0.961535
vt 0.329822 0.961535
vt 0.329836 0.940415
vt 0.330476 0.953069
vt 0.329510 0.940460
vt 0.330259 0.953069
vt 0.327968 0.870318
vt 0.327290 0.869972
vt 0.327968 0.870318
vt 0.325278 0.762448
vt 0.325403 0.834462
vt 0.324655 0.835459
vt 0.324294 0.762448
vt 0.321765 0.845117
vt 0.320753 0.762448
vt 0.322512 0.844120
vt 0.321737 0.762448
vt 0.322320 0.856336
vt 0.322993 0.863685
vt 0.322778 0.880168
vt 0.322456 0.876155
vt 0.322440 0.880868
vt 0.322676 0.883808
vt 0.324046 0.873307
vt 0.323674 0.878029
vt 0.323725 0.869321
vt 0.323438 0.875089
vt 0.325317 0.852608
vt 0.324684 0.844006
vt 0.320498 0.762448
vt 0.321260 0.807319
vt 0.322197 0.806045
vt 0.321571 0.762448
vt 0.325287 0.810635
vt 0.324912 0.762448
vt 0.324349 0.811909
vt 0.323839 0.762448
vt 0.325325 0.852144
vt 0.324729 0.861034
vt 0.325389 0.870819
vt 0.325682 0.865470
vt 0.325964 0.870119
vt 0.325779 0.873496
vt 0.323881 0.864672
vt 0.324706 0.868931
vt 0.324172 0.859366
vt 0.324891 0.865554
vt 0.322263 0.851730
vt 0.322760 0.841652
vt 0.317811 0.913184
vt 0.319814 0.927309
vt 0.319817 0.927324
vt 0.329510 0.940460
vt 0.327892 0.913184
vt 0.328417 0.913184
vt 0.326215 0.927027
vt 0.326741 0.926883
vt 0.324478 0.854236
vt 0.325002 0.860780
vt 0.322496 0.863968
vt 0.323025 0.870556
vt 0.323163 0.850659
vt 0.322749 0.858279
vt 0.325294 0.859056
vt 0.324875 0.866700
s 0
usemtl Texture
f 1/1/1 2/2/1 4/3/1 3/4/1
f 3/4/2 4/3/2 6/3/2 5/4/2
f 5/4/3 6/3/3 8/2/3 7/1/3
f 7/1/4 8/2/4 10/5/4 9/6/4
f 4/3/5 2/2/5 14/7/5 13/8/5
f 9/6/6 10/5/6 12/5/6 11/6/6
f 11/6/7 12/5/7 2/2/7 1/1/7
f 1/1/8 3/4/8 5/4/8 7/1/8 9/6/8 11/6/8
f 14/9/9 18/10/9 24/11/9 20/12/9
f 8/2/10 6/3/10 15/8/10 16/7/10
f 2/2/11 12/5/11 18/13/11 14/7/11
f 10/5/12 8/2/12 16/7/12 17/13/12
f 6/3/13 4/3/13 13/8/13 15/8/13
f 12/5/14 10/5/14 17/13/14 18/13/14
f 24/11/15 23/11/15 29/14/15 30/14/15
f 17/10/16 16/9/16 22/12/16 23/11/16
f 15/15/17 13/15/17 19/16/17 21/16/17
f 18/10/18 17/10/18 23/11/18 24/11/18
f 16/9/19 15/15/19 21/16/19 22/12/19
f 13/15/20 14/9/20 20/12/20 19/16/20
f 29/14/21 28/17/21 34/18/21 35/19/21
f 22/12/22 21/16/22 27/20/22 28/17/22
f 19/16/23 20/12/23 26/17/23 25/20/23
f 20/12/24 24/11/24 30/14/24 26/17/24
f 23/11/25 22/12/25 28/17/25 29/14/25
f 21/16/26 19/16/26 25/20/26 27/20/26
f 34/21/27 33/22/27 39/23/27 40/24/27
f 27/20/28 25/20/28 31/25/28 33/25/28
f 30/14/29 29/14/29 35/19/29 36/19/29
f 28/17/30 27/20/30 33/25/30 34/18/30
f 25/20/31 26/17/31 32/18/31 31/25/31
f 26/17/32 30/14/32 36/19/32 32/18/32
f 37/23/33 38/24/33 42/26/33 41/26/33 40/24/33 39/23/33
f 31/22/34 32/21/34 38/24/34 37/23/34
f 32/21/35 36/27/35 42/26/35 38/24/35
f 35/27/36 34/21/36 40/24/36 41/26/36
f 33/22/37 31/22/37 37/23/37 39/23/37
f 36/27/38 35/27/38 41/26/38 42/26/38
f 43/28/39 44/29/39 46/30/39 45/28/39
f 45/28/40 46/30/40 50/31/40 49/32/40
f 49/32/41 50/31/41 48/33/41 47/32/41
f 47/32/42 48/33/42 44/29/42 43/28/42
f 45/28/43 49/32/43 47/32/43 43/28/43
f 48/33/44 50/31/44 98/34/44 101/35/44
f 100/36/45 97/36/45 53/37/45 54/37/45
f 92/38/46 100/36/46 54/37/46 51/39/46
f 97/36/47 94/40/47 52/39/47 53/37/47
f 53/37/48 52/39/48 51/39/48 54/37/48
f 46/30/49 44/29/49 91/41/49 95/42/49
f 44/29/50 48/33/50 101/43/50 91/41/50
f 50/31/51 46/30/51 95/44/51 98/45/51
f 55/46/52 56/47/52 58/48/52 57/49/52
f 57/49/53 58/48/53 62/50/53 61/51/53
f 61/51/54 62/50/54 60/52/54 59/53/54
f 59/53/55 60/52/55 56/47/55 55/46/55
f 57/49/43 61/51/43 59/53/43 55/46/43
f 60/52/56 62/50/56 110/54/56 113/55/56
f 112/56/57 109/57/57 65/58/57 66/59/57
f 104/60/58 112/56/58 66/59/58 63/61/58
f 109/57/59 106/62/59 64/63/59 65/58/59
f 65/58/60 64/63/60 63/61/60 66/59/60
f 58/48/61 56/47/61 103/64/61 107/65/61
f 56/47/62 60/52/62 113/55/62 103/66/62
f 62/50/63 58/48/63 107/65/63 110/54/63
f 67/67/52 68/68/52 70/69/52 69/70/52
f 69/70/53 70/69/53 74/71/53 73/72/53
f 73/72/54 74/71/54 72/73/54 71/74/54
f 71/74/55 72/73/55 68/68/55 67/67/55
f 69/70/43 73/72/43 71/74/43 67/67/43
f 72/73/64 74/71/64 122/75/64 125/76/64
f 124/77/65 121/78/65 77/79/65 78/80/65
f 116/81/66 124/77/66 78/80/66 75/82/66
f 121/78/67 118/83/67 76/84/67 77/79/67
f 77/79/68 76/84/68 75/82/68 78/80/68
f 70/69/69 68/68/69 115/85/69 119/86/69
f 68/68/70 72/73/70 125/76/70 115/85/70
f 74/71/71 70/69/71 119/86/71 122/75/71
f 79/87/72 80/88/72 82/89/72 81/90/72
f 81/90/73 82/89/73 86/91/73 85/92/73
f 85/92/74 86/91/74 84/93/74 83/94/74
f 83/94/75 84/93/75 80/88/75 79/87/75
f 81/90/43 85/92/43 83/94/43 79/87/43
f 84/93/76 86/91/76 134/95/76 137/96/76
f 136/97/77 133/98/77 89/99/77 90/100/77
f 128/101/78 136/97/78 90/100/78 87/102/78
f 133/98/79 130/103/79 88/104/79 89/99/79
f 89/99/80 88/104/80 87/102/80 90/100/80
f 82/89/81 80/88/81 127/105/81 131/106/81
f 80/88/82 84/93/82 137/96/82 127/105/82
f 86/91/83 82/89/83 131/106/83 134/95/83
f 92/40/84 94/40/84 96/107/84 93/107/84
f 93/107/85 96/107/85 95/42/85 91/41/85
f 94/40/86 97/36/86 99/108/86 96/107/86
f 96/107/87 99/108/87 98/45/87 95/44/87
f 97/36/88 100/36/88 102/109/88 99/108/88
f 99/108/89 102/109/89 101/35/89 98/34/89
f 100/36/90 92/38/90 93/107/90 102/109/90
f 102/109/91 93/107/91 91/41/91 101/43/91
f 94/40/92 92/40/92 51/39/92 52/39/92
f 104/60/93 106/110/93 108/111/93 105/112/93
f 105/112/94 108/111/94 107/65/94 103/64/94
f 106/62/95 109/57/95 111/113/95 108/111/95
f 108/111/96 111/113/96 110/54/96 107/65/96
f 109/57/97 112/56/97 114/114/97 111/113/97
f 111/113/98 114/114/98 113/55/98 110/54/98
f 112/56/99 104/60/99 105/112/99 114/114/99
f 114/114/100 105/112/100 103/66/100 113/55/100
f 106/110/101 104/60/101 63/61/101 64/63/101
f 116/81/102 118/83/102 120/115/102 117/116/102
f 117/116/103 120/115/103 119/86/103 115/85/103
f 118/83/104 121/78/104 123/117/104 120/115/104
f 120/115/105 123/117/105 122/75/105 119/86/105
f 121/78/106 124/77/106 126/118/106 123/117/106
f 123/117/107 126/118/107 125/76/107 122/75/107
f 124/77/108 116/81/108 117/116/108 126/118/108
f 126/118/109 117/116/109 115/85/109 125/76/109
f 118/83/110 116/81/110 75/82/110 76/84/110
f 128/101/111 130/103/111 132/119/111 129/120/111
f 129/120/112 132/119/112 131/106/112 127/105/112
f 130/103/113 133/98/113 135/121/113 132/119/113
f 132/119/114 135/121/114 134/95/114 131/106/114
f 133/98/115 136/97/115 138/122/115 135/121/115
f 135/121/116 138/122/116 137/96/116 134/95/116
f 136/97/117 128/101/117 129/120/117 138/122/117
f 138/122/118 129/120/118 127/105/118 137/96/118
f 130/103/119 128/101/119 87/102/119 88/104/119
