# Blender 4.1.1
# www.blender.org
mtllib Tree3.mtl
o Tree3
v -0.274445 -2.108133 0.118362
v -0.177074 -0.697613 -0.024375
v -0.375847 -2.108133 -0.076429
v -0.177470 -0.742680 -0.078683
v -0.309811 -2.108133 -0.285869
v -0.179226 -0.718191 -0.144848
v -0.115020 -2.108133 -0.387270
v -0.035421 -0.752093 -0.221556
v 0.094420 -2.108133 -0.321234
v 0.047096 -0.724393 -0.207942
v 0.195822 -2.108133 -0.126443
v 0.083322 -0.768173 -0.108094
v 0.129786 -2.108133 0.082996
v 0.040589 -0.704875 0.000159
v -0.065005 -2.108133 0.184398
v -0.036700 -0.772478 0.002338
v 0.016529 1.696407 -0.077935
v 0.005699 1.696920 -0.098762
v 0.012752 1.696586 -0.121156
v 0.033556 1.695601 -0.131998
v 0.055924 1.694541 -0.124937
v 0.066754 1.694028 -0.104110
v 0.059701 1.694363 -0.081716
v 0.038897 1.695348 -0.070874
v -0.343999 0.184853 -0.010402
v -0.289936 0.215282 -0.042697
v -0.271608 0.225597 -0.109400
v -0.299751 0.209757 -0.171438
v -0.357880 0.177041 -0.192470
v -0.411943 0.146612 -0.160175
v -0.430271 0.136297 -0.093472
v -0.402128 0.152137 -0.031434
v -0.014113 -0.627179 -0.209203
v -0.180587 -0.648633 -0.156705
v 0.020710 -0.604357 -0.006864
v -0.039097 -0.573746 -0.110616
v -0.076457 -0.571442 -0.011708
v -0.180191 -0.603566 -0.102397
v -0.119360 -0.596271 -0.206254
v -0.178434 -0.628055 -0.036231
v 0.575577 -0.149848 -0.147440
v 0.540588 -0.147122 -0.209107
v 0.541132 -0.137987 -0.086553
v 0.471155 -0.132533 -0.209885
v 0.471700 -0.123398 -0.087332
v 0.436711 -0.120671 -0.148998
v 0.535615 0.464927 -0.176076
v 0.514960 0.474835 -0.216330
v 0.517445 0.480268 -0.136331
v 0.476135 0.500085 -0.216838
v 0.478620 0.505517 -0.136839
v 0.457965 0.515426 -0.177093
v 0.855474 0.914398 -0.204743
v 0.850110 0.914872 -0.214205
v 0.850208 0.916273 -0.195401
v 0.839480 0.917222 -0.214325
v 0.839579 0.918623 -0.195520
v 0.834215 0.919097 -0.204982
v 0.135339 -0.346849 0.672176
v 0.191087 -0.305875 0.645693
v 0.065251 -0.328306 0.656943
v 0.176749 -0.246357 0.603977
v 0.050912 -0.268788 0.615228
v 0.106661 -0.227813 0.588745
v 0.105808 0.760198 1.008909
v 0.119130 0.764696 0.998153
v 0.089059 0.761795 1.003401
v 0.115703 0.770792 0.981889
v 0.085633 0.767891 0.987137
v 0.098955 0.772389 0.976382
v -0.567236 -0.411984 -0.071896
v -0.550767 -0.388372 -0.037207
v -0.559326 -0.398442 -0.114159
v -0.518477 -0.337677 -0.087043
v -0.526387 -0.351219 -0.044781
v -0.534947 -0.361289 -0.121733
v -0.819033 0.127071 -0.067157
v -0.807071 0.134786 -0.050005
v -0.812875 0.131784 -0.088053
v -0.782794 0.151925 -0.074646
v -0.788952 0.147212 -0.053750
v -0.794756 0.144210 -0.091797
v -0.119710 -1.412219 0.026578
v -0.158041 -1.438386 -0.078145
v -0.134249 -1.424167 -0.195257
v 0.022439 -1.443851 -0.277896
v 0.149045 -1.427768 -0.245179
v 0.208179 -1.453188 -0.114014
v 0.158555 -1.416435 0.027534
v 0.040489 -1.455687 0.066901
v -0.015483 1.868677 -0.095833
v -0.017753 1.867441 -0.100798
v -0.016274 1.868246 -0.106137
v -0.011913 1.870620 -0.108722
v -0.007224 1.873172 -0.107039
v -0.004953 1.874408 -0.102073
v -0.006432 1.873603 -0.096734
v -0.010793 1.871229 -0.094149
vn -0.9661 -0.0433 0.2546
vn -0.9910 -0.0410 -0.1278
vn -0.4636 0.0335 -0.8854
vn 0.1978 0.0881 -0.9763
vn 0.9283 0.1620 -0.3347
vn 0.9446 0.1686 0.2817
vn 0.1613 0.0874 0.9830
vn -0.1938 0.0623 0.9791
vn -0.5415 0.1707 -0.8232
vn 0.5262 -0.1008 0.8444
vn 0.8998 -0.2047 -0.3853
vn 0.9448 -0.2177 0.2448
vn -0.3718 0.1297 0.9192
vn -0.8928 0.2520 0.3733
vn -0.9356 0.2614 -0.2372
vn 0.3476 -0.0531 -0.9361
vn 0.9417 0.3018 -0.1487
vn 0.1793 0.0873 0.9799
vn 0.1090 0.0672 -0.9918
vn 0.9378 0.3114 -0.1535
vn -0.5016 -0.1447 -0.8529
vn -0.9352 -0.2933 0.1983
vn -0.2323 -0.0781 0.9695
vn -0.9528 -0.2986 -0.0554
vn 0.5943 0.7478 0.2960
vn 0.3061 0.7841 -0.5399
vn -0.1977 -0.1342 -0.9710
vn -0.5043 -0.1780 -0.8450
vn 0.0541 0.1092 0.9925
vn 0.0580 0.0884 -0.9944
vn -0.5062 0.8124 -0.2893
vn -0.5950 0.6505 0.4721
vn 0.0174 0.0796 0.9967
vn -0.8741 0.0491 0.4833
vn -0.6244 0.6133 -0.4838
vn 0.6761 -0.5731 -0.4631
vn 0.0079 -0.0090 -0.9999
vn 0.6752 -0.5087 0.5341
vn 0.0108 -0.0034 -0.9999
vn -0.6475 0.5678 -0.5083
vn 0.8918 0.0744 0.4462
vn -0.8856 0.0055 -0.4645
vn 0.0078 -0.0112 -0.9999
vn 0.8789 0.0328 -0.4758
vn 0.2161 0.9736 -0.0736
vn 0.7007 -0.5302 -0.4774
vn -0.6337 0.6209 0.4614
vn 0.0442 0.1017 0.9938
vn 0.7161 -0.4773 0.5093
vn 0.9791 0.1199 -0.1643
vn 0.2934 0.3479 -0.8904
vn 0.6420 -0.7106 0.2880
vn 0.9478 0.1117 -0.2986
vn -0.9458 0.0195 0.3241
vn -0.4277 -0.7157 0.5522
vn -0.0280 0.9341 0.3560
vn 0.5723 -0.2231 0.7891
vn -0.5944 0.2879 -0.7509
vn -0.9701 -0.0533 0.2369
vn -0.2848 -0.2853 0.9152
vn 0.6884 0.3886 -0.6124
vn -0.7221 -0.3408 0.6020
vn 0.4763 0.6502 -0.5920
vn -0.6259 -0.7242 -0.2895
vn 0.0989 0.1576 0.9825
vn -0.5261 -0.6221 0.5798
vn -0.5626 0.8265 0.0206
vn 0.1492 0.0967 0.9841
vn -0.8636 -0.3993 -0.3078
vn 0.8378 0.4457 0.3154
vn -0.2041 -0.0483 -0.9778
vn -0.2499 0.1954 0.9483
vn 0.4010 0.0774 0.9128
vn 0.9490 -0.0189 0.3147
vn 0.8965 -0.0156 -0.4428
vn 0.2767 0.0924 -0.9565
vn -0.4411 0.2310 -0.8672
vn -0.9272 0.2854 -0.2426
vn -0.8820 0.2672 0.3881
vn 0.4468 0.2387 0.8622
vn 0.8928 0.3523 0.2806
vn 0.8353 0.3379 -0.4337
vn -0.4706 -0.0037 -0.8824
vn -0.3092 0.0398 0.9501
vn -0.9465 -0.1340 -0.2935
vn -0.8842 -0.1168 0.4523
vn 0.2915 0.1985 -0.9358
vt 0.513261 0.793230
vt 0.512717 0.834063
vt 0.512713 0.831488
vt 0.512897 0.791734
vt 0.512697 0.832887
vt 0.513123 0.792547
vt 0.514059 0.830950
vt 0.514608 0.791422
vt 0.514841 0.832533
vt 0.515807 0.792341
vt 0.515185 0.830031
vt 0.516368 0.790888
vt 0.514780 0.833648
vt 0.515898 0.792988
vt 0.514047 0.829786
vt 0.514779 0.790745
vt 0.511004 0.884042
vt 0.510492 0.882303
vt 0.514516 0.970871
vt 0.514713 0.970815
vt 0.511135 0.884489
vt 0.511648 0.886227
vt 0.514961 0.970744
vt 0.514764 0.970801
vt 0.511821 0.886817
vt 0.511555 0.885912
vt 0.514925 0.970755
vt 0.515028 0.970725
vt 0.510585 0.882619
vt 0.514552 0.970861
vt 0.510318 0.881714
vt 0.514449 0.970890
vt 0.514025 0.841141
vt 0.514261 0.838088
vt 0.513671 0.841273
vt 0.514591 0.839392
vt 0.513264 0.839854
vt 0.512684 0.836862
vt 0.512688 0.839437
vt 0.512704 0.838038
vt 0.509482 0.854630
vt 0.509407 0.853857
vt 0.515406 0.860908
vt 0.516070 0.859849
vt 0.509095 0.851158
vt 0.509326 0.853281
vt 0.519523 0.866041
vt 0.518865 0.866875
vt 0.514877 0.858567
vt 0.518533 0.867031
vt 0.519298 0.901369
vt 0.518930 0.902812
vt 0.518735 0.903378
vt 0.518860 0.866353
vt 0.519518 0.865519
vt 0.519849 0.865363
vt 0.519275 0.901058
vt 0.518907 0.902501
vt 0.522350 0.926337
vt 0.522451 0.926203
vt 0.522300 0.926444
vt 0.519471 0.900492
vt 0.522452 0.926283
vt 0.522501 0.926176
vt 0.522351 0.926417
vt 0.516206 0.856448
vt 0.515491 0.917970
vt 0.515524 0.917622
vt 0.515333 0.918061
vt 0.515678 0.854106
vt 0.515013 0.855166
vt 0.515239 0.917456
vt 0.515398 0.917365
vt 0.515207 0.917804
vt 0.506864 0.882166
vt 0.506977 0.882607
vt 0.509020 0.850384
vt 0.509176 0.851734
vt 0.506747 0.881627
vt 0.506634 0.881187
vt 0.506692 0.881456
vt 0.506919 0.882338
vt 0.513779 0.753464
vt 0.511795 0.753464
vt 0.515625 0.753464
vt 0.516251 0.753464
vt 0.515290 0.753464
vt 0.513305 0.753464
vt 0.511459 0.753464
vt 0.510834 0.753464
vt 0.514334 0.980986
vt 0.514293 0.980851
vt 0.514348 0.981032
vt 0.514327 0.980962
vt 0.514241 0.980680
vt 0.514282 0.980816
vt 0.514248 0.980705
vt 0.514227 0.980634
s 0
usemtl Texture
f 83/1/1 2/2/1 4/3/1 84/4/1
f 84/4/2 4/3/2 6/5/2 85/6/2
f 85/6/3 6/5/3 8/7/3 86/8/3
f 86/8/4 8/7/4 10/9/4 87/10/4
f 87/10/5 10/9/5 12/11/5 88/12/5
f 88/12/6 12/11/6 14/13/6 89/14/6
f 89/14/7 14/13/7 16/15/7 90/16/7
f 90/16/8 16/15/8 2/2/8 83/1/8
f 29/17/9 30/18/9 19/19/9 20/20/9
f 25/21/10 26/22/10 23/23/10 24/24/10
f 27/25/11 28/26/11 21/27/11 22/28/11
f 26/22/12 27/25/12 22/28/12 23/23/12
f 32/29/13 25/21/13 24/24/13 17/30/13
f 31/31/14 32/29/14 17/30/14 18/32/14
f 30/18/15 31/31/15 18/32/15 19/19/15
f 28/26/16 29/17/16 20/20/16 21/27/16
f 36/33/17 33/34/17 28/26/17 27/25/17
f 37/35/18 35/36/18 26/22/18 25/21/18
f 33/34/19 39/37/19 29/17/19 28/26/19
f 35/36/20 36/33/20 27/25/20 26/22/20
f 39/37/21 34/38/21 30/18/21 29/17/21
f 38/39/22 40/40/22 32/29/22 31/31/22
f 40/40/23 37/35/23 25/21/23 32/29/23
f 34/38/24 38/39/24 31/31/24 30/18/24
f 40/40/25 38/39/25 74/41/25 75/42/25
f 35/36/26 37/35/26 64/43/26 62/44/26
f 34/38/27 6/5/27 73/45/27 76/46/27
f 8/7/28 6/5/28 34/38/28 39/37/28
f 35/36/29 14/13/29 43/47/29 45/48/29
f 10/9/30 8/7/30 39/37/30 33/34/30
f 37/35/31 40/40/31 63/49/31 64/43/31
f 36/33/32 35/36/32 45/48/32 46/50/32
f 45/48/33 43/47/33 49/51/33 51/52/33
f 46/50/34 45/48/34 51/52/34 52/53/34
f 33/34/35 36/33/35 46/50/35 44/54/35
f 12/11/36 10/9/36 42/55/36 41/56/36
f 10/9/37 33/34/37 44/54/37 42/55/37
f 14/13/38 12/11/38 41/56/38 43/47/38
f 48/57/39 50/58/39 56/59/39 54/60/39
f 50/58/40 52/53/40 58/61/40 56/59/40
f 43/47/41 41/56/41 47/62/41 49/51/41
f 44/54/42 46/50/42 52/53/42 50/58/42
f 42/55/43 44/54/43 50/58/43 48/57/43
f 41/56/44 42/55/44 48/57/44 47/62/44
f 55/63/45 53/64/45 58/61/45 57/65/45
f 53/64/45 54/60/45 56/59/45 58/61/45
f 47/62/46 48/57/46 54/60/46 53/64/46
f 52/53/47 51/52/47 57/65/47 58/61/47
f 51/52/48 49/51/48 55/63/48 57/65/48
f 49/51/49 47/62/49 53/64/49 55/63/49
f 60/66/50 62/44/50 68/67/50 66/68/50
f 62/44/51 64/43/51 70/69/51 68/67/51
f 16/15/52 14/13/52 60/66/52 59/70/52
f 14/13/53 35/36/53 62/44/53 60/66/53
f 40/40/54 2/2/54 61/71/54 63/49/54
f 2/2/55 16/15/55 59/70/55 61/71/55
f 67/72/56 65/73/56 70/69/56 69/74/56
f 65/73/56 66/68/56 68/67/56 70/69/56
f 59/70/57 60/66/57 66/68/57 65/73/57
f 64/43/58 63/49/58 69/74/58 70/69/58
f 63/49/59 61/71/59 67/72/59 69/74/59
f 61/71/60 59/70/60 65/73/60 67/72/60
f 74/41/61 76/46/61 82/75/61 80/76/61
f 71/77/62 72/78/62 78/79/62 77/80/62
f 38/39/63 34/38/63 76/46/63 74/41/63
f 6/5/64 4/3/64 71/77/64 73/45/64
f 2/2/65 40/40/65 75/42/65 72/78/65
f 4/3/66 2/2/66 72/78/66 71/77/66
f 79/81/67 77/80/67 80/76/67 82/75/67
f 77/80/67 78/79/67 81/82/67 80/76/67
f 72/78/68 75/42/68 81/82/68 78/79/68
f 73/45/69 71/77/69 77/80/69 79/81/69
f 75/42/70 74/41/70 80/76/70 81/82/70
f 76/46/71 73/45/71 79/81/71 82/75/71
f 15/83/72 90/16/72 83/1/72 1/84/72
f 13/85/73 89/14/73 90/16/73 15/83/73
f 11/86/74 88/12/74 89/14/74 13/85/74
f 9/87/75 87/10/75 88/12/75 11/86/75
f 7/88/76 86/8/76 87/10/76 9/87/76
f 5/89/77 85/6/77 86/8/77 7/88/77
f 3/90/78 84/4/78 85/6/78 5/89/78
f 1/84/79 83/1/79 84/4/79 3/90/79
f 24/24/80 23/23/80 97/91/80 98/92/80
f 23/23/81 22/28/81 96/93/81 97/91/81
f 22/28/82 21/27/82 95/94/82 96/93/82
f 20/20/83 19/19/83 93/95/83 94/96/83
f 17/30/84 24/24/84 98/92/84 91/97/84
f 19/19/85 18/32/85 92/98/85 93/95/85
f 18/32/86 17/30/86 91/97/86 92/98/86
f 21/27/87 20/20/87 94/96/87 95/94/87
