# Blender 4.1.1
# www.blender.org
mtllib Tree1_Green.mtl
o Tree1_Green
v -0.000000 -2.901145 -0.327474
v -0.000000 -1.239975 -0.248500
v 0.231559 -2.901145 -0.231559
v 0.175716 -1.239975 -0.175716
v 0.327474 -2.901145 0.000000
v 0.248500 -1.239975 0.000000
v 0.231559 -2.901145 0.231559
v 0.175716 -1.239975 0.175716
v -0.000000 -2.901145 0.327474
v -0.000000 -1.239975 0.248500
v -0.231559 -2.901145 0.231559
v -0.175716 -1.239975 0.175716
v -0.327474 -2.901145 0.000000
v -0.248500 -1.239975 0.000000
v -0.231559 -2.901145 -0.231559
v -0.175716 -1.239975 -0.175716
v 1.038014 -1.690204 -1.038014
v -0.000000 -1.690204 -1.467974
v 1.467974 -1.690204 0.000000
v 1.038014 -1.690204 1.038014
v -0.000000 -1.690204 1.467974
v -1.038014 -1.690204 1.038014
v -1.467974 -1.690204 0.000000
v -1.038014 -1.690204 -1.038014
v 0.412617 -0.571001 -0.412617
v -0.000000 -0.571001 -0.583529
v 0.583529 -0.571001 0.000000
v 0.412617 -0.571001 0.412617
v -0.000000 -0.571001 0.583529
v -0.412618 -0.571001 0.412617
v -0.583529 -0.571001 0.000000
v -0.412618 -0.571001 -0.412617
v 0.934203 -1.025243 -0.934203
v -0.000000 -1.025243 -1.321163
v 1.321163 -1.025243 0.000000
v 0.934203 -1.025243 0.934203
v -0.000000 -1.025243 1.321163
v -0.934203 -1.025243 0.934203
v -1.321163 -1.025243 0.000000
v -0.934203 -1.025243 -0.934203
v 0.247854 0.296186 -0.247854
v -0.000000 0.296186 -0.350518
v 0.350518 0.296186 0.000000
v 0.247854 0.296186 0.247854
v -0.000000 0.296186 0.350518
v -0.247854 0.296186 0.247854
v -0.350518 0.296186 0.000000
v -0.247854 0.296186 -0.247854
v 0.790709 -0.358629 -0.790709
v -0.000000 -0.358629 -1.118232
v 1.118232 -0.358629 0.000000
v 0.790709 -0.358629 0.790709
v -0.000000 -0.358629 1.118232
v -0.790709 -0.358629 0.790709
v -1.118232 -0.358629 0.000000
v -0.790709 -0.358629 -0.790709
v 0.143259 1.080784 -0.143259
v -0.000000 1.080784 -0.202599
v 0.202599 1.080784 0.000000
v 0.143259 1.080784 0.143259
v -0.000000 1.080784 0.202599
v -0.143259 1.080784 0.143259
v -0.202600 1.080784 0.000000
v -0.143259 1.080784 -0.143259
v 0.589671 0.355178 -0.589671
v -0.000000 0.355178 -0.833920
v 0.833920 0.355178 -0.000000
v 0.589671 0.355178 0.589671
v -0.000000 0.355178 0.833920
v -0.589670 0.355178 0.589671
v -0.833920 0.355178 -0.000000
v -0.589670 0.355178 -0.589671
v 0.173368 1.569948 -0.173368
v 0.000000 1.569948 -0.245179
v 0.245179 1.569948 -0.000000
v 0.173368 1.569948 0.173368
v 0.000000 1.569948 0.245179
v -0.173368 1.569948 0.173368
v -0.245179 1.569948 -0.000000
v -0.173368 1.569948 -0.173368
v 0.010462 1.797167 -0.010462
v 0.000000 1.797167 -0.014795
v 0.014795 1.797167 0.000000
v 0.010462 1.797167 0.010462
v 0.000000 1.797167 0.014795
v -0.010462 1.797167 0.010462
v -0.014795 1.797167 0.000000
v -0.010462 1.797167 -0.010462
v -0.342733 0.969387 0.342733
v -0.484698 0.969387 -0.000000
v 0.342733 0.969387 0.342733
v -0.000000 0.969387 0.484697
v 0.342733 0.969387 -0.342733
v 0.484697 0.969387 -0.000000
v -0.342733 0.969387 -0.342733
v -0.000000 0.969387 -0.484698
v 0.000000 1.717550 -0.167461
v 0.118413 1.717550 -0.118413
v -0.118412 1.717550 -0.118413
v -0.118412 1.717550 0.118412
v -0.167461 1.717550 -0.000000
v 0.118413 1.717550 0.118412
v 0.000000 1.717550 0.167461
v 0.167461 1.717550 -0.000000
vn 0.3823 0.0439 -0.9230
vn 0.9230 0.0439 -0.3823
vn 0.9230 0.0439 0.3823
vn 0.3823 0.0439 0.9230
vn -0.3823 0.0439 0.9230
vn -0.9230 0.0439 0.3823
vn -0.3428 -0.9286 -0.1420
vn -0.9230 0.0439 -0.3823
vn -0.3823 0.0439 -0.9230
vn -0.0000 -1.0000 -0.0000
vn -0.7462 0.5897 -0.3091
vn 0.3428 -0.9286 -0.1420
vn -0.1420 -0.9286 -0.3428
vn 0.3428 -0.9286 0.1420
vn -0.3428 -0.9286 0.1420
vn 0.1420 -0.9286 -0.3428
vn 0.1420 -0.9286 0.3428
vn -0.1420 -0.9286 0.3428
vn 0.5124 -0.8321 0.2122
vn -0.3091 0.5897 0.7462
vn 0.7462 0.5897 0.3091
vn 0.3091 0.5897 -0.7462
vn -0.3091 0.5897 -0.7462
vn -0.7462 0.5897 0.3091
vn 0.3091 0.5897 0.7462
vn 0.7462 0.5897 -0.3091
vn 0.3167 0.5615 0.7645
vn 0.2122 -0.8321 -0.5124
vn -0.5124 -0.8321 -0.2122
vn -0.2122 -0.8321 0.5124
vn 0.2122 -0.8321 0.5124
vn 0.5124 -0.8321 -0.2122
vn -0.2122 -0.8321 -0.5124
vn -0.5124 -0.8321 0.2122
vn 0.2596 -0.7348 0.6267
vn 0.7645 0.5615 -0.3167
vn -0.7645 0.5615 -0.3167
vn -0.3167 0.5615 0.7645
vn 0.7645 0.5615 0.3167
vn 0.3167 0.5615 -0.7645
vn -0.3167 0.5615 -0.7645
vn -0.7645 0.5615 0.3167
vn -0.3299 0.5067 0.7965
vn 0.6267 -0.7348 -0.2596
vn -0.2596 -0.7348 -0.6267
vn -0.6267 -0.7348 0.2596
vn 0.6267 -0.7348 0.2596
vn 0.2596 -0.7348 -0.6267
vn -0.6267 -0.7348 -0.2596
vn -0.2596 -0.7348 0.6267
vn 0.7201 -0.6265 0.2983
vn 0.7965 0.5067 0.3299
vn 0.3299 0.5067 -0.7965
vn -0.3299 0.5067 -0.7965
vn -0.7965 0.5067 0.3299
vn 0.3299 0.5067 0.7965
vn 0.7965 0.5067 -0.3299
vn -0.7965 0.5067 -0.3299
vn -0.8669 0.3457 0.3591
vn 0.2983 -0.6265 -0.7201
vn -0.7201 -0.6265 -0.2983
vn -0.2983 -0.6265 0.7201
vn 0.2983 -0.6265 0.7201
vn 0.7201 -0.6265 -0.2983
vn -0.2983 -0.6265 -0.7201
vn -0.7201 -0.6265 0.2983
vn 0.1881 0.8708 -0.4542
vn 0.3591 0.3457 0.8669
vn 0.8669 0.3457 -0.3591
vn -0.8669 0.3457 -0.3591
vn -0.3591 0.3457 0.8669
vn 0.8669 0.3457 0.3591
vn 0.3591 0.3457 -0.8669
vn -0.3591 0.3457 -0.8669
vn -0.0000 1.0000 -0.0000
vn -0.1881 0.8708 -0.4542
vn -0.4542 0.8708 0.1881
vn 0.1881 0.8708 0.4542
vn 0.4542 0.8708 -0.1881
vn -0.4542 0.8708 -0.1881
vn -0.1881 0.8708 0.4542
vn 0.4542 0.8708 0.1881
vn -0.3388 0.4650 -0.8179
vn 0.3388 0.4650 -0.8179
vn 0.8179 0.4650 0.3388
vn -0.3388 0.4650 0.8179
vn -0.8179 0.4650 -0.3388
vn 0.8179 0.4650 -0.3388
vn 0.3388 0.4650 0.8179
vn -0.8179 0.4650 0.3388
vn 0.8308 0.4374 0.3441
vn -0.3441 0.4374 0.8308
vn -0.8308 0.4374 -0.3441
vn 0.8308 0.4374 -0.3441
vn 0.3441 0.4374 0.8308
vn -0.8308 0.4374 0.3441
vn -0.3441 0.4374 -0.8308
vn 0.3441 0.4374 -0.8308
vt 0.514014 0.743091
vt 0.514014 0.935398
vt 0.514382 0.935398
vt 0.514499 0.743091
vt 0.514534 0.935398
vt 0.514699 0.743091
vt 0.513646 0.935398
vt 0.513529 0.743091
vt 0.513493 0.935398
vt 0.513328 0.743091
vt 0.322469 0.815191
vt 0.322667 0.815191
vt 0.325985 0.792974
vt 0.324815 0.792974
vt 0.514417 0.745443
vt 0.515047 0.745443
vt 0.515307 0.745443
vt 0.513786 0.745443
vt 0.513525 0.745443
vt 0.320817 0.779293
vt 0.319648 0.779293
vt 0.322054 0.937216
vt 0.322519 0.937216
vt 0.321315 0.815191
vt 0.321513 0.815191
vt 0.319167 0.792974
vt 0.317997 0.792974
vt 0.321991 0.815191
vt 0.321991 0.792974
vt 0.320868 0.848202
vt 0.320403 0.848202
vt 0.318396 0.825787
vt 0.319449 0.825787
vt 0.323642 0.779293
vt 0.323642 0.937216
vt 0.326466 0.779293
vt 0.327636 0.779293
vt 0.325229 0.937216
vt 0.324764 0.937216
vt 0.325866 0.807160
vt 0.328006 0.807159
vt 0.326434 0.959517
vt 0.325866 0.959517
vt 0.321991 0.848202
vt 0.321991 0.825787
vt 0.323113 0.848202
vt 0.323578 0.848202
vt 0.325585 0.825787
vt 0.324533 0.825787
vt 0.321991 0.825787
vt 0.321991 0.890995
vt 0.321316 0.890995
vt 0.319839 0.858682
vt 0.321991 0.858682
vt 0.328892 0.807159
vt 0.326669 0.959517
vt 0.323726 0.807159
vt 0.322840 0.807159
vt 0.325063 0.959517
vt 0.325299 0.959517
vt 0.325866 0.807159
vt 0.319452 0.833207
vt 0.321603 0.833207
vt 0.321603 0.968092
vt 0.321213 0.968092
vt 0.321037 0.890995
vt 0.318948 0.858682
vt 0.322665 0.890995
vt 0.324142 0.858682
vt 0.322944 0.890995
vt 0.325033 0.858682
vt 0.321601 0.929712
vt 0.321440 0.929712
vt 0.319722 0.893906
vt 0.320386 0.893906
vt 0.323755 0.833207
vt 0.324646 0.833207
vt 0.322154 0.968092
vt 0.321993 0.968092
vt 0.318561 0.833207
vt 0.321052 0.968092
vt 0.322360 0.879854
vt 0.322820 0.879854
vt 0.323304 0.919751
vt 0.323045 0.919751
vt 0.321991 0.929712
vt 0.321991 0.893906
vt 0.322381 0.929712
vt 0.322542 0.929712
vt 0.324260 0.893906
vt 0.323595 0.893906
vt 0.324255 0.945519
vt 0.323928 0.945519
vt 0.323928 0.971287
vt 0.323957 0.971287
vt 0.323928 0.879854
vt 0.325037 0.879854
vt 0.324553 0.919751
vt 0.323928 0.919751
vt 0.325497 0.879854
vt 0.325037 0.879854
vt 0.324812 0.919751
vt 0.322820 0.879854
vt 0.322019 0.992131
vt 0.321991 0.992131
vt 0.321962 0.992131
vt 0.321950 0.992131
vt 0.322031 0.992131
vt 0.323602 0.945519
vt 0.323900 0.971287
vt 0.323467 0.945519
vt 0.323602 0.945519
vt 0.323888 0.971287
vt 0.323928 0.945519
vt 0.324255 0.945519
vt 0.324390 0.945519
vt 0.323969 0.971287
vt 0.323928 0.839050
vt 0.322324 0.839050
vt 0.325533 0.839050
vt 0.326197 0.839050
vt 0.321660 0.839050
s 0
usemtl Texture
f 1/1/1 2/2/1 4/3/1 3/4/1
f 3/4/2 4/3/2 6/5/2 5/6/2
f 5/6/3 6/5/3 8/3/3 7/4/3
f 7/4/4 8/3/4 10/2/4 9/1/4
f 9/1/5 10/2/5 12/7/5 11/8/5
f 11/8/6 12/7/6 14/9/6 13/10/6
f 8/11/7 6/12/7 19/13/7 20/14/7
f 13/10/8 14/9/8 16/7/8 15/8/8
f 15/8/9 16/7/9 2/2/9 1/1/9
f 1/15/10 3/16/10 5/17/10 7/16/10 9/15/10 11/18/10 13/19/10 15/18/10
f 24/20/11 23/21/11 31/22/11 32/23/11
f 14/24/12 12/25/12 22/26/12 23/27/12
f 10/28/13 8/11/13 20/14/13 21/29/13
f 16/25/14 14/24/14 23/27/14 24/26/14
f 6/12/15 4/11/15 17/14/15 19/13/15
f 12/25/16 10/28/16 21/29/16 22/26/16
f 2/28/17 16/25/17 24/26/17 18/29/17
f 4/11/18 2/28/18 18/29/18 17/14/18
f 32/30/19 31/31/19 39/32/19 40/33/19
f 22/20/20 21/34/20 29/35/20 30/23/20
f 20/36/21 19/37/21 27/38/21 28/39/21
f 17/36/22 18/34/22 26/35/22 25/39/22
f 18/34/23 24/20/23 32/23/23 26/35/23
f 23/21/24 22/20/24 30/23/24 31/22/24
f 21/34/25 20/36/25 28/39/25 29/35/25
f 19/37/26 17/36/26 25/39/26 27/38/26
f 37/40/27 36/41/27 44/42/27 45/43/27
f 30/30/28 29/44/28 37/45/28 38/33/28
f 28/46/29 27/47/29 35/48/29 36/49/29
f 25/46/30 26/44/30 34/50/30 33/49/30
f 26/44/31 32/30/31 40/33/31 34/50/31
f 31/31/32 30/30/32 38/33/32 39/32/32
f 29/44/33 28/46/33 36/49/33 37/45/33
f 27/47/34 25/46/34 33/49/34 35/48/34
f 42/51/35 48/52/35 56/53/35 50/54/35
f 35/55/36 33/41/36 41/42/36 43/56/36
f 40/57/37 39/58/37 47/59/37 48/60/37
f 38/57/38 37/40/38 45/43/38 46/60/38
f 36/41/39 35/55/39 43/56/39 44/42/39
f 33/41/40 34/61/40 42/43/40 41/42/40
f 34/61/41 40/57/41 48/60/41 42/43/41
f 39/58/42 38/57/42 46/60/42 47/59/42
f 54/62/43 53/63/43 61/64/43 62/65/43
f 47/66/44 46/52/44 54/53/44 55/67/44
f 45/51/45 44/68/45 52/69/45 53/54/45
f 43/70/46 41/68/46 49/69/46 51/71/46
f 48/52/47 47/66/47 55/67/47 56/53/47
f 46/52/48 45/51/48 53/54/48 54/53/48
f 44/68/49 43/70/49 51/71/49 52/69/49
f 41/68/50 42/51/50 50/54/50 49/69/50
f 64/72/51 63/73/51 71/74/51 72/75/51
f 52/76/52 51/77/52 59/78/52 60/79/52
f 49/76/53 50/63/53 58/64/53 57/79/53
f 50/63/54 56/62/54 64/65/54 58/64/54
f 55/80/55 54/62/55 62/65/55 63/81/55
f 53/63/56 52/76/56 60/79/56 61/64/56
f 51/77/57 49/76/57 57/79/57 59/78/57
f 56/62/58 55/80/58 63/81/58 64/65/58
f 90/82/59 89/83/59 78/84/59 79/85/59
f 62/72/60 61/86/60 69/87/60 70/75/60
f 60/88/61 59/89/61 67/90/61 68/91/61
f 57/88/62 58/86/62 66/87/62 65/91/62
f 58/86/63 64/72/63 72/75/63 66/87/63
f 63/73/64 62/72/64 70/75/64 71/74/64
f 61/86/65 60/88/65 68/91/65 69/87/65
f 59/89/66 57/88/66 65/91/66 67/90/66
f 98/92/67 97/93/67 82/94/67 81/95/67
f 92/96/68 91/97/68 76/98/68 77/99/68
f 94/100/69 93/101/69 73/98/69 75/102/69
f 95/103/70 90/82/70 79/85/70 80/84/70
f 89/83/71 92/96/71 77/99/71 78/84/71
f 91/97/72 94/100/72 75/102/72 76/98/72
f 93/101/73 96/96/73 74/99/73 73/98/73
f 96/96/74 95/103/74 80/84/74 74/99/74
f 81/104/75 82/105/75 88/106/75 87/107/75 86/106/75 85/105/75 84/104/75 83/108/75
f 97/93/76 99/109/76 88/110/76 82/94/76
f 101/111/77 100/112/77 86/110/77 87/113/77
f 103/114/78 102/115/78 84/95/78 85/94/78
f 104/116/79 98/92/79 81/95/79 83/117/79
f 99/109/80 101/111/80 87/113/80 88/110/80
f 100/112/81 103/114/81 85/94/81 86/110/81
f 102/115/82 104/116/82 83/117/82 84/95/82
f 66/118/83 72/119/83 95/103/83 96/96/83
f 65/120/84 66/118/84 96/96/84 93/101/84
f 68/120/85 67/121/85 94/100/85 91/97/85
f 70/119/86 69/118/86 92/96/86 89/83/86
f 72/119/87 71/122/87 90/82/87 95/103/87
f 67/121/88 65/120/88 93/101/88 94/100/88
f 69/118/89 68/120/89 91/97/89 92/96/89
f 71/122/90 70/119/90 89/83/90 90/82/90
f 76/98/91 75/102/91 104/116/91 102/115/91
f 78/84/92 77/99/92 103/114/92 100/112/92
f 80/84/93 79/85/93 101/111/93 99/109/93
f 75/102/94 73/98/94 98/92/94 104/116/94
f 77/99/95 76/98/95 102/115/95 103/114/95
f 79/85/96 78/84/96 100/112/96 101/111/96
f 74/99/97 80/84/97 99/109/97 97/93/97
f 73/98/98 74/99/98 97/93/98 98/92/98
